<svg width="46" height="44" viewBox="0 0 46 44" fill="none" xmlns="http://www.w3.org/2000/svg">
<path fill-rule="evenodd" clip-rule="evenodd" d="M0.25 11.5C0.25 5.37886 5.21218 0.416687 11.3333 0.416687H34.6667C40.7878 0.416687 45.75 5.37886 45.75 11.5V20.8334C45.75 26.9545 40.7878 31.9167 34.6667 31.9167H11.3333C5.21218 31.9167 0.25 26.9545 0.25 20.8334V11.5ZM11.3333 3.91669C7.14517 3.91669 3.75 7.31186 3.75 11.5V20.8334C3.75 25.0215 7.14517 28.4167 11.3333 28.4167H34.6667C38.8548 28.4167 42.25 25.0215 42.25 20.8334V11.5C42.25 7.31186 38.8548 3.91669 34.6667 3.91669H11.3333Z" fill="#C2E978"/>
<path fill-rule="evenodd" clip-rule="evenodd" d="M0.25 20.8334V26.6667C0.25 32.7879 5.21218 37.75 11.3333 37.75H34.6667C40.7878 37.75 45.75 32.7879 45.75 26.6667V20.8334C45.75 24.2552 44.1993 27.3148 41.7624 29.3479C40.6793 32.2128 37.9109 34.25 34.6667 34.25H11.3333C8.08912 34.25 5.32071 32.2128 4.23761 29.3479C1.80066 27.3148 0.25 24.2552 0.25 20.8334Z" fill="#C2E978"/>
<path fill-rule="evenodd" clip-rule="evenodd" d="M0.25 26.6667V32.5C0.25 38.6212 5.21218 43.5834 11.3333 43.5834H34.6667C40.7878 43.5834 45.75 38.6212 45.75 32.5V26.6667C45.75 30.0885 44.1993 33.1481 41.7624 35.1812C40.6793 38.0461 37.9109 40.0834 34.6667 40.0834H11.3333C8.08912 40.0834 5.32071 38.0461 4.23761 35.1812C1.80066 33.1481 0.25 30.0885 0.25 26.6667Z" fill="#C2E978"/>
<path fill-rule="evenodd" clip-rule="evenodd" d="M19.3586 9.62661C20.3376 8.75732 21.6683 8.34609 23.1651 8.37698C24.0307 8.39485 24.9821 8.51573 25.886 8.9346C26.827 9.37062 27.6088 10.0794 28.1886 11.0907C28.6693 11.9291 28.3793 12.9985 27.5408 13.4793C26.7023 13.96 25.6329 13.67 25.1522 12.8315C24.9172 12.4216 24.6698 12.2285 24.4145 12.1102C24.1222 11.9748 23.7103 11.889 23.0929 11.8762C22.2699 11.8593 21.8621 12.0843 21.6825 12.2438C21.5087 12.3981 21.4019 12.6167 21.4019 12.9211C21.4019 13.3547 21.5284 13.675 21.7316 13.8825C21.9194 14.0743 22.3984 14.4011 23.5875 14.4011C24.6583 14.4011 25.9429 14.5978 26.9952 15.3844C28.1413 16.2411 28.7132 17.5671 28.7132 19.1718C28.7132 20.6765 27.9226 21.9291 26.9069 22.7541C25.889 23.5809 24.5409 24.0773 23.129 24.0773C21.7919 24.0773 20.5908 23.7158 19.5859 22.9922C18.5952 22.2787 17.9015 21.2906 17.4301 20.1989C17.0469 19.3116 17.4556 18.2817 18.3429 17.8986C19.2302 17.5154 20.2602 17.9241 20.6433 18.8114C20.9271 19.4687 21.2696 19.8916 21.6312 20.152C21.9786 20.4022 22.4461 20.5773 23.129 20.5773C23.7371 20.5773 24.3061 20.3575 24.7003 20.0373C25.0968 19.7153 25.2132 19.3902 25.2132 19.1718C25.2132 18.4421 24.9934 18.2578 24.8997 18.1877C24.7122 18.0476 24.309 17.9011 23.5875 17.9011C21.7406 17.9011 20.2518 17.3739 19.2308 16.3312C18.2253 15.3043 17.9019 14.0095 17.9019 12.9211C17.9019 11.7036 18.3738 10.501 19.3586 9.62661Z" fill="#C2E978"/>
<path fill-rule="evenodd" clip-rule="evenodd" d="M23 5.72131C23.6444 5.72131 24.1667 6.24365 24.1667 6.88798V9.81809C24.1667 10.4624 23.6444 10.9848 23 10.9848C22.3557 10.9848 21.8334 10.4624 21.8334 9.81809V6.88798C21.8334 6.24365 22.3557 5.72131 23 5.72131Z" fill="#C2E978"/>
<path fill-rule="evenodd" clip-rule="evenodd" d="M23.0555 21.3486C23.6998 21.3486 24.2221 21.8709 24.2221 22.5152V25.4454C24.2221 26.0897 23.6998 26.612 23.0555 26.612C22.4111 26.612 21.8888 26.0897 21.8888 25.4454V22.5152C21.8888 21.8709 22.4111 21.3486 23.0555 21.3486Z" fill="#C2E978"/>
</svg>
