<?xml version="1.0" encoding="utf-8"?>
<!-- Generator: Adobe Illustrator 26.0.2, SVG Export Plug-In . SVG Version: 6.00 Build 0)  -->
<svg version="1.1" id="Layer_1" xmlns="http://www.w3.org/2000/svg" xmlns:xlink="http://www.w3.org/1999/xlink" x="0px" y="0px"
	 viewBox="0 0 761 119" style="enable-background:new 0 0 761 119;" xml:space="preserve">
<style type="text/css">
	.st0{fill:#FFFFFF;}
	.st1{fill-rule:evenodd;clip-rule:evenodd;fill:#FFFFFF;}
	.st2{fill:#C2E978;}
	.st3{fill-rule:evenodd;clip-rule:evenodd;fill:#C2E978;}
</style>
<path class="st0" d="M33.9,45.7l-0.8-25.1l-1.6,1.8l-2.7-2.3l4.2-4.9l3.4-0.1l1,30.5L33.9,45.7z"/>
<path class="st0" d="M45.6,45.3c0,0.5-0.1,0.9-0.3,1.3c-0.2,0.4-0.4,0.7-0.7,1.1c-0.3,0.3-0.7,0.5-1.1,0.7s-0.8,0.3-1.3,0.3
	s-0.9-0.1-1.3-0.3c-0.4-0.2-0.7-0.4-1-0.7c-0.3-0.3-0.5-0.7-0.7-1.1c-0.2-0.4-0.3-0.8-0.3-1.3s0.1-0.9,0.3-1.3
	c0.2-0.4,0.4-0.7,0.7-1c0.3-0.3,0.6-0.5,1-0.7s0.8-0.2,1.3-0.2s0.9,0.1,1.3,0.2c0.4,0.2,0.7,0.4,1.1,0.7c0.3,0.3,0.5,0.6,0.7,1
	L45.6,45.3z"/>
<path class="st0" d="M50.2,43.9c1-0.1,2-0.4,2.9-0.9s1.7-1,2.3-1.8c0.7-0.7,1.2-1.5,1.6-2.5c0.4-0.9,0.6-1.9,0.6-2.9s-0.2-2-0.6-3
	s-0.9-1.8-1.6-2.6s-1.5-1.4-2.4-1.8c-0.9-0.5-1.9-0.7-3-0.7h-2.7l3.3-13.9h8v3.5h-5.2l-1.6,7.1c1.3,0.3,2.6,0.7,3.8,1.5
	c1.1,0.7,2.1,1.6,3,2.6s1.5,2.1,2,3.4s0.7,2.6,0.7,4c0,1.5-0.3,2.9-0.8,4.2c-0.5,1.3-1.3,2.5-2.2,3.6c-1,1-2.1,1.9-3.3,2.6
	c-1.3,0.7-2.7,1.1-4.2,1.2L50.2,43.9z"/>
<path class="st0" d="M82.2,21.7l1,6.8l-4.3-5.4l-6.2,3.1l3.8-5.8l-4.9-4.9l6.7,1.8l3.2-6.1l0.3,6.9l6.8,1.1L82.2,21.7z"/>
<path class="st0" d="M102.3,43.9c1-0.1,2-0.4,2.9-0.9s1.7-1,2.3-1.8c0.7-0.7,1.2-1.5,1.6-2.5c0.4-0.9,0.6-1.9,0.6-2.9s-0.2-2-0.6-3
	c-0.4-1-0.9-1.8-1.6-2.6c-0.7-0.8-1.5-1.4-2.4-1.8c-0.9-0.5-1.9-0.7-3-0.7h-2.7l3.3-13.9h8v3.5h-5.2l-1.6,7.1
	c1.3,0.3,2.6,0.7,3.8,1.5c1.1,0.7,2.1,1.6,3,2.6s1.5,2.1,2,3.4s0.7,2.6,0.7,4c0,1.5-0.3,2.9-0.8,4.2c-0.5,1.3-1.3,2.5-2.2,3.6
	c-1,1-2.1,1.9-3.3,2.6c-1.3,0.7-2.7,1.1-4.2,1.2L102.3,43.9z"/>
<path class="st0" d="M135.8,31c0,1-0.1,2.1-0.3,3.2s-0.5,2.1-0.9,3.1s-0.9,2-1.4,2.9c-0.6,0.9-1.2,1.7-2,2.4
	c-0.8,0.7-1.7,1.2-2.6,1.6c-1,0.4-2.1,0.6-3.3,0.6s-2.3-0.2-3.3-0.6s-1.9-0.9-2.7-1.6s-1.5-1.5-2-2.4c-0.6-0.9-1.1-1.9-1.5-2.9
	s-0.7-2.1-0.8-3.2c-0.2-1.1-0.3-2.1-0.3-3.2c0-1,0.1-2,0.3-3.1s0.5-2.1,0.9-3.1s0.9-2,1.5-2.9s1.3-1.7,2.1-2.4s1.6-1.2,2.6-1.6
	c1-0.4,2-0.6,3.1-0.6s2.2,0.2,3.1,0.6c1,0.4,1.8,1,2.6,1.6c0.8,0.7,1.5,1.5,2.1,2.4s1.1,1.9,1.5,2.9s0.7,2.1,0.9,3.1L135.8,31z
	 M132.3,31c0-0.7-0.1-1.4-0.2-2.2c-0.1-0.8-0.3-1.6-0.5-2.3c-0.2-0.8-0.6-1.5-0.9-2.2c-0.4-0.7-0.8-1.3-1.3-1.8s-1.1-1-1.8-1.3
	s-1.4-0.5-2.3-0.5c-0.9,0-1.6,0.2-2.3,0.5s-1.3,0.7-1.8,1.3c-0.5,0.5-1,1.1-1.3,1.8c-0.4,0.7-0.7,1.4-0.9,2.2s-0.4,1.6-0.5,2.3
	c-0.1,0.8-0.2,1.5-0.2,2.2s0.1,1.4,0.2,2.2c0.1,0.8,0.3,1.6,0.5,2.3c0.2,0.8,0.5,1.5,0.9,2.2s0.8,1.3,1.3,1.8s1.1,1,1.8,1.3
	s1.4,0.5,2.3,0.5c0.8,0,1.6-0.2,2.3-0.5s1.3-0.8,1.8-1.3s1-1.1,1.3-1.8c0.4-0.7,0.7-1.4,0.9-2.2c0.2-0.8,0.4-1.5,0.5-2.3L132.3,31z"
	/>
<path class="st0" d="M158.5,31c0,1-0.1,2.1-0.3,3.2s-0.5,2.1-0.9,3.1s-0.9,2-1.4,2.9c-0.6,0.9-1.2,1.7-2,2.4
	c-0.8,0.7-1.7,1.2-2.6,1.6c-1,0.4-2.1,0.6-3.3,0.6s-2.3-0.2-3.3-0.6s-1.9-0.9-2.7-1.6s-1.5-1.5-2-2.4c-0.6-0.9-1.1-1.9-1.5-2.9
	s-0.7-2.1-0.8-3.2c-0.2-1.1-0.3-2.1-0.3-3.2c0-1,0.1-2,0.3-3.1s0.5-2.1,0.9-3.1s0.9-2,1.5-2.9s1.3-1.7,2.1-2.4s1.7-1.2,2.6-1.6
	c1-0.4,2-0.6,3.1-0.6s2.2,0.2,3.1,0.6c1,0.4,1.8,1,2.6,1.6c0.8,0.7,1.5,1.5,2.1,2.4s1.1,1.9,1.5,2.9s0.7,2.1,0.9,3.1L158.5,31z
	 M155,31c0-0.7-0.1-1.4-0.2-2.2c-0.1-0.8-0.3-1.6-0.5-2.3c-0.2-0.8-0.6-1.5-0.9-2.2c-0.4-0.7-0.8-1.3-1.3-1.8s-1.1-1-1.8-1.3
	s-1.4-0.5-2.3-0.5c-0.9,0-1.6,0.2-2.3,0.5s-1.3,0.7-1.8,1.3c-0.5,0.5-1,1.1-1.3,1.8c-0.4,0.7-0.7,1.4-0.9,2.2s-0.4,1.6-0.5,2.3
	c-0.1,0.8-0.2,1.5-0.2,2.2s0.1,1.4,0.2,2.2c0.1,0.8,0.3,1.6,0.5,2.3c0.2,0.8,0.5,1.5,0.9,2.2s0.8,1.3,1.3,1.8s1.1,1,1.8,1.3
	s1.4,0.5,2.3,0.5c0.8,0,1.6-0.2,2.3-0.5s1.3-0.8,1.8-1.3s1-1.1,1.3-1.8c0.4-0.7,0.7-1.4,0.9-2.2c0.2-0.8,0.4-1.5,0.5-2.3L155,31z"/>
<path class="st0" d="M181.1,31c0,1-0.1,2.1-0.3,3.2s-0.5,2.1-0.9,3.1s-0.9,2-1.4,2.9c-0.6,0.9-1.2,1.7-2,2.4
	c-0.8,0.7-1.7,1.2-2.6,1.6c-1,0.4-2.1,0.6-3.3,0.6s-2.3-0.2-3.3-0.6s-1.9-0.9-2.7-1.6s-1.5-1.5-2-2.4c-0.6-0.9-1.1-1.9-1.5-2.9
	s-0.7-2.1-0.8-3.2c-0.2-1.1-0.3-2.1-0.3-3.2c0-1,0.1-2,0.3-3.1s0.5-2.1,0.9-3.1s0.9-2,1.5-2.9s1.3-1.7,2.1-2.4s1.7-1.2,2.6-1.6
	c1-0.4,2-0.6,3.1-0.6s2.2,0.2,3.1,0.6c1,0.4,1.8,1,2.6,1.6c0.8,0.7,1.5,1.5,2.1,2.4s1.1,1.9,1.5,2.9s0.7,2.1,0.9,3.1L181.1,31z
	 M177.6,31c0-0.7-0.1-1.4-0.2-2.2c-0.1-0.8-0.3-1.6-0.5-2.3c-0.2-0.8-0.6-1.5-0.9-2.2c-0.4-0.7-0.8-1.3-1.3-1.8s-1.1-1-1.8-1.3
	s-1.4-0.5-2.3-0.5c-0.9,0-1.6,0.2-2.3,0.5s-1.3,0.7-1.8,1.3c-0.5,0.5-1,1.1-1.3,1.8c-0.4,0.7-0.7,1.4-0.9,2.2s-0.4,1.6-0.5,2.3
	c-0.1,0.8-0.2,1.5-0.2,2.2s0.1,1.4,0.2,2.2c0.1,0.8,0.3,1.6,0.5,2.3c0.2,0.8,0.5,1.5,0.9,2.2s0.8,1.3,1.3,1.8s1.1,1,1.8,1.3
	s1.4,0.5,2.3,0.5c0.8,0,1.6-0.2,2.3-0.5s1.3-0.8,1.8-1.3s1-1.1,1.3-1.8c0.4-0.7,0.7-1.4,0.9-2.2c0.2-0.8,0.4-1.5,0.5-2.3L177.6,31z"
	/>
<path class="st0" d="M195.6,48.2l-3.8-32.9l7.7-1l0.5,3.4l-4.3,0.6l0.4,3.6l6-1.2l0.6,3.5l-6.3,1.2l2.2,18.8l4.6-0.9l0.6,3.5
	L195.6,48.2z"/>
<path class="st0" d="M215,41.3c0,0.7-0.1,1.4-0.4,2c-0.3,0.6-0.7,1.2-1.1,1.7c-0.5,0.5-1,0.9-1.7,1.1c-0.6,0.3-1.3,0.4-2,0.4
	s-1.4-0.1-2-0.4s-1.2-0.7-1.7-1.1c-0.5-0.5-0.9-1-1.1-1.7c-0.3-0.6-0.4-1.3-0.4-2V14.4h3.5v26.9c0,0.5,0.2,0.9,0.5,1.3
	c0.3,0.3,0.8,0.5,1.3,0.5c0.2,0,0.5-0.1,0.7-0.2s0.4-0.2,0.5-0.4c0.2-0.2,0.3-0.4,0.4-0.6c0.1-0.2,0.1-0.4,0.1-0.7V14.4h3.5v26.9
	H215z"/>
<path class="st0" d="M229.1,47.5c0-1.9-0.1-3.9-0.4-5.9c-0.3-2-0.7-3.9-1.2-5.8c-0.6-1.9-1.3-3.7-2.2-5.4s-2-3.3-3.3-4.8l-1.1,0.2
	l1.7,22l-3.5,0.3L216.6,15c0.6-0.3,1.3-0.6,1.9-0.9c0.6-0.2,1.3-0.4,2-0.4c0.8,0,1.6,0.2,2.4,0.5c0.7,0.3,1.4,0.8,1.9,1.3
	c0.5,0.6,1,1.2,1.3,1.9s0.5,1.5,0.5,2.4c0,0.8-0.1,1.5-0.4,2.2c-0.3,0.7-0.7,1.3-1.2,1.9c1.4,1.7,2.6,3.4,3.5,5.3
	c1,1.9,1.8,3.8,2.4,5.9c0.6,2,1.1,4.1,1.3,6.2c0.3,2.1,0.4,4.2,0.4,6.4h-3.5V47.5z M220.3,17.2l0.4,5.2c0.7-0.1,1.3-0.4,1.7-0.8
	c0.5-0.5,0.7-1.1,0.7-1.8s-0.2-1.3-0.7-1.8s-1.1-0.7-1.9-0.7h-0.2V17.2z"/>
<path class="st0" d="M253.8,21.7l1,6.8l-4.3-5.4l-6.2,3.1l3.8-5.8l-4.9-4.9l6.7,1.8l3.2-6.1l0.3,6.9l6.8,1.1L253.8,21.7z"/>
<path class="st0" d="M273.9,43.9c1-0.1,2-0.4,2.9-0.9s1.7-1,2.3-1.8c0.7-0.7,1.2-1.5,1.6-2.5c0.4-0.9,0.6-1.9,0.6-2.9s-0.2-2-0.6-3
	s-0.9-1.8-1.6-2.6s-1.5-1.4-2.4-1.8c-0.9-0.5-1.9-0.7-3-0.7H271l3.3-13.9h8v3.5H277l-1.6,7.1c1.3,0.3,2.6,0.7,3.8,1.5
	c1.1,0.7,2.1,1.6,3,2.6s1.5,2.1,2,3.4s0.7,2.6,0.7,4c0,1.5-0.3,2.9-0.8,4.2c-0.5,1.3-1.3,2.5-2.2,3.6c-1,1-2.1,1.9-3.3,2.6
	c-1.3,0.7-2.7,1.1-4.2,1.2L273.9,43.9z"/>
<path class="st0" d="M307.4,31c0,1-0.1,2.1-0.3,3.2c-0.2,1.1-0.5,2.1-0.9,3.1s-0.9,2-1.4,2.9c-0.6,0.9-1.2,1.7-2,2.4
	c-0.8,0.7-1.7,1.2-2.6,1.6c-1,0.4-2.1,0.6-3.3,0.6c-1.2,0-2.3-0.2-3.3-0.6s-1.9-0.9-2.7-1.6c-0.8-0.7-1.5-1.5-2-2.4
	c-0.6-0.9-1.1-1.9-1.5-2.9s-0.7-2.1-0.8-3.2c-0.2-1.1-0.3-2.1-0.3-3.2c0-1,0.1-2,0.3-3.1c0.2-1.1,0.5-2.1,0.9-3.1s0.9-2,1.5-2.9
	s1.3-1.7,2.1-2.4c0.8-0.7,1.6-1.2,2.6-1.6c1-0.4,2-0.6,3.1-0.6s2.2,0.2,3.1,0.6c1,0.4,1.8,1,2.6,1.6c0.8,0.7,1.5,1.5,2.1,2.4
	s1.1,1.9,1.5,2.9s0.7,2.1,0.9,3.1L307.4,31z M303.9,31c0-0.7-0.1-1.4-0.2-2.2s-0.3-1.6-0.5-2.3c-0.2-0.8-0.6-1.5-0.9-2.2
	c-0.4-0.7-0.8-1.3-1.3-1.8s-1.1-1-1.8-1.3c-0.7-0.3-1.4-0.5-2.3-0.5s-1.6,0.2-2.3,0.5c-0.7,0.3-1.3,0.7-1.8,1.3
	c-0.5,0.5-1,1.1-1.3,1.8c-0.4,0.7-0.7,1.4-0.9,2.2c-0.2,0.8-0.4,1.6-0.5,2.3c-0.1,0.8-0.2,1.5-0.2,2.2s0.1,1.4,0.2,2.2
	c0.1,0.8,0.3,1.6,0.5,2.3c0.2,0.8,0.5,1.5,0.9,2.2s0.8,1.3,1.3,1.8s1.1,1,1.8,1.3c0.7,0.3,1.4,0.5,2.3,0.5c0.8,0,1.6-0.2,2.3-0.5
	c0.7-0.3,1.3-0.8,1.8-1.3s1-1.1,1.3-1.8c0.4-0.7,0.7-1.4,0.9-2.2c0.2-0.8,0.4-1.5,0.5-2.3L303.9,31z"/>
<path class="st0" d="M326.7,48L325,24.7l-2.9,0.2l1.6,23.4l-3.5,0.2l-2.3-33l3.5-0.2l0.4,6.1l2.9-0.2l-0.4-6.1l3.5-0.2l2.3,33
	L326.7,48z"/>
<path class="st0" d="M342.5,47.9l-3.1-13.8l-2.9,0.2L335.3,48l-3.5-0.3l2.7-32.3l4-0.6l7.4,32.3L342.5,47.9z M337.3,25l-0.5,5.9
	l1.8-0.2L337.3,25z"/>
<path class="st1" d="M366.7,63.9c-71.3-4-143.8-1.8-215.3-2.5c-47.3-0.5-94.5-1.6-141.8-2c-1.4,0-2.6,0.7-2.6,1.5
	c0,0.9,1.1,1.6,2.5,1.6c47.2,0.4,94.5,1.6,141.8,2C222.7,65.2,295,63,366.2,67c1.4,0.1,2.7-0.5,2.8-1.4
	C369.2,64.7,368.1,64,366.7,63.9z"/>
<path class="st0" d="M154.3,110.6l-0.8-25.1l-1.6,1.8l-2.7-2.3l4.2-4.9l3.4-0.1l1,30.5L154.3,110.6z"/>
<path class="st0" d="M180.5,96c0,1-0.1,2.1-0.3,3.2c-0.2,1.1-0.5,2.1-0.9,3.1s-0.9,2-1.4,2.9c-0.6,0.9-1.2,1.7-2,2.4
	s-1.7,1.2-2.6,1.6c-1,0.4-2.1,0.6-3.3,0.6s-2.3-0.2-3.3-0.6c-1-0.4-1.9-0.9-2.7-1.6c-0.8-0.7-1.5-1.5-2-2.4
	c-0.6-0.9-1.1-1.9-1.5-2.9s-0.7-2.1-0.8-3.2c-0.2-1.1-0.3-2.1-0.3-3.2c0-1,0.1-2,0.3-3.1s0.5-2.1,0.9-3.1s0.9-2,1.5-2.9
	s1.3-1.7,2.1-2.4c0.8-0.7,1.6-1.2,2.6-1.6s2-0.6,3.1-0.6s2.2,0.2,3.1,0.6c1,0.4,1.8,1,2.6,1.6c0.8,0.7,1.5,1.5,2.1,2.4
	s1.1,1.9,1.5,2.9s0.7,2.1,0.9,3.1L180.5,96z M177,96c0-0.7-0.1-1.4-0.2-2.2c-0.1-0.8-0.3-1.6-0.5-2.3c-0.2-0.8-0.6-1.5-0.9-2.2
	c-0.4-0.7-0.8-1.3-1.3-1.8s-1.1-1-1.8-1.3s-1.4-0.5-2.3-0.5c-0.9,0-1.6,0.2-2.3,0.5s-1.3,0.7-1.8,1.3c-0.5,0.5-1,1.1-1.3,1.8
	c-0.4,0.7-0.7,1.4-0.9,2.2c-0.2,0.8-0.4,1.6-0.5,2.3c-0.1,0.8-0.2,1.5-0.2,2.2s0.1,1.4,0.2,2.2c0.1,0.8,0.3,1.6,0.5,2.3
	c0.2,0.8,0.5,1.5,0.9,2.2s0.8,1.3,1.3,1.8s1.1,1,1.8,1.3s1.4,0.5,2.3,0.5c0.8,0,1.6-0.2,2.3-0.5s1.3-0.8,1.8-1.3s1-1.1,1.3-1.8
	c0.4-0.7,0.7-1.4,0.9-2.2s0.4-1.5,0.5-2.3L177,96z"/>
<path class="st0" d="M203.2,96c0,1-0.1,2.1-0.3,3.2c-0.2,1.1-0.5,2.1-0.9,3.1s-0.9,2-1.4,2.9c-0.6,0.9-1.2,1.7-2,2.4
	s-1.7,1.2-2.6,1.6c-1,0.4-2.1,0.6-3.3,0.6s-2.3-0.2-3.3-0.6c-1-0.4-1.9-0.9-2.7-1.6c-0.8-0.7-1.5-1.5-2-2.4
	c-0.6-0.9-1.1-1.9-1.5-2.9s-0.7-2.1-0.8-3.2c-0.2-1.1-0.3-2.1-0.3-3.2c0-1,0.1-2,0.3-3.1s0.5-2.1,0.9-3.1s0.9-2,1.5-2.9
	s1.3-1.7,2.1-2.4c0.8-0.7,1.6-1.2,2.6-1.6s2-0.6,3.1-0.6s2.2,0.2,3.1,0.6c1,0.4,1.8,1,2.6,1.6c0.8,0.7,1.5,1.5,2.1,2.4
	s1.1,1.9,1.5,2.9s0.7,2.1,0.9,3.1L203.2,96z M199.7,96c0-0.7-0.1-1.4-0.2-2.2c-0.1-0.8-0.3-1.6-0.5-2.3c-0.2-0.8-0.6-1.5-0.9-2.2
	c-0.4-0.7-0.8-1.3-1.3-1.8s-1.1-1-1.8-1.3s-1.4-0.5-2.3-0.5c-0.9,0-1.6,0.2-2.3,0.5s-1.3,0.7-1.8,1.3c-0.5,0.5-1,1.1-1.3,1.8
	c-0.4,0.7-0.7,1.4-0.9,2.2c-0.2,0.8-0.4,1.6-0.5,2.3c-0.1,0.8-0.2,1.5-0.2,2.2s0.1,1.4,0.2,2.2c0.1,0.8,0.3,1.6,0.5,2.3
	c0.2,0.8,0.5,1.5,0.9,2.2s0.8,1.3,1.3,1.8s1.1,1,1.8,1.3s1.4,0.5,2.3,0.5c0.8,0,1.6-0.2,2.3-0.5s1.3-0.8,1.8-1.3s1-1.1,1.3-1.8
	c0.4-0.7,0.7-1.4,0.9-2.2s0.4-1.5,0.5-2.3L199.7,96z"/>
<path class="st0" d="M225.8,96c0,1-0.1,2.1-0.3,3.2c-0.2,1.1-0.5,2.1-0.9,3.1s-0.9,2-1.4,2.9c-0.6,0.9-1.2,1.7-2,2.4
	s-1.7,1.2-2.6,1.6c-1,0.4-2.1,0.6-3.3,0.6s-2.3-0.2-3.3-0.6c-1-0.4-1.9-0.9-2.7-1.6c-0.8-0.7-1.5-1.5-2-2.4
	c-0.6-0.9-1.1-1.9-1.5-2.9s-0.7-2.1-0.8-3.2c-0.2-1.1-0.3-2.1-0.3-3.2c0-1,0.1-2,0.3-3.1s0.5-2.1,0.9-3.1s0.9-2,1.5-2.9
	s1.3-1.7,2.1-2.4c0.8-0.7,1.6-1.2,2.6-1.6s2-0.6,3.1-0.6s2.2,0.2,3.1,0.6c1,0.4,1.8,1,2.6,1.6c0.8,0.7,1.5,1.5,2.1,2.4
	s1.1,1.9,1.5,2.9s0.7,2.1,0.9,3.1L225.8,96z M222.4,96c0-0.7-0.1-1.4-0.2-2.2c-0.1-0.8-0.3-1.6-0.5-2.3c-0.2-0.8-0.6-1.5-0.9-2.2
	c-0.4-0.7-0.8-1.3-1.3-1.8s-1.1-1-1.8-1.3s-1.4-0.5-2.3-0.5c-0.9,0-1.6,0.2-2.3,0.5s-1.3,0.7-1.8,1.3c-0.5,0.5-1,1.1-1.3,1.8
	c-0.4,0.7-0.7,1.4-0.9,2.2c-0.2,0.8-0.4,1.6-0.5,2.3c-0.1,0.8-0.2,1.5-0.2,2.2s0.1,1.4,0.2,2.2c0.1,0.8,0.3,1.6,0.5,2.3
	c0.2,0.8,0.5,1.5,0.9,2.2s0.8,1.3,1.3,1.8s1.1,1,1.8,1.3s1.4,0.5,2.3,0.5c0.8,0,1.6-0.2,2.3-0.5s1.3-0.8,1.8-1.3s1-1.1,1.3-1.8
	c0.4-0.7,0.7-1.4,0.9-2.2s0.4-1.5,0.5-2.3L222.4,96z"/>
<path class="st0" d="M384.6,62.6v-4.9h30.5v4.9H384.6z M384.6,71.4v-4.8h30.5v4.8H384.6z"/>
<path class="st0" d="M433.6,81.9c1.4-0.2,2.8-0.6,4-1.2s2.3-1.4,3.2-2.5c0.9-1,1.6-2.1,2.2-3.4c0.5-1.3,0.8-2.6,0.8-4.1
	s-0.3-2.8-0.8-4.2c-0.5-1.3-1.3-2.4-2.2-3.5c-1-1-2.1-1.8-3.3-2.5c-1.3-0.6-2.6-1-4.1-1.1l0.4-4.8h0.4c0.7,0,1.4-0.1,2.1-0.3
	c0.6-0.2,1.2-0.5,1.6-1c0.4-0.4,0.8-0.9,1.1-1.5c0.3-0.6,0.4-1.2,0.4-2c0-0.7-0.1-1.3-0.4-1.9c-0.2-0.6-0.6-1.1-1-1.5
	s-0.9-0.8-1.5-1s-1.2-0.4-1.9-0.4c-0.9,0-1.7,0.2-2.4,0.6l-2.4-4.2c0.7-0.4,1.5-0.7,2.3-0.9c0.8-0.2,1.6-0.3,2.5-0.3
	c1.3,0,2.5,0.3,3.7,0.8s2.2,1.2,3,2.1c0.9,0.9,1.6,1.9,2.1,3.1s0.7,2.4,0.7,3.7c0,1.4-0.3,2.7-0.8,3.9c-0.5,1.3-1.3,2.3-2.4,3.2
	c1.2,0.7,2.2,1.6,3.2,2.6c0.9,1,1.7,2.1,2.4,3.2c0.7,1.2,1.2,2.4,1.5,3.8c0.3,1.3,0.5,2.7,0.5,4.1c0,2-0.4,4-1.1,5.8
	c-0.8,1.8-1.8,3.5-3.1,4.9c-1.3,1.4-2.9,2.6-4.6,3.5c-1.8,0.9-3.7,1.5-5.7,1.7L433.6,81.9z"/>
<path class="st0" d="M454.8,87.2l-4.8-0.8l7-40.5h-8.6v-4.8h14.4L454.8,87.2z"/>
<path class="st0" d="M467.8,81.9c1.4-0.2,2.7-0.6,4-1.2c1.2-0.6,2.3-1.4,3.2-2.5c0.9-1,1.6-2.1,2.2-3.4c0.5-1.3,0.8-2.6,0.8-4.1
	c0-1.4-0.3-2.8-0.8-4.2c-0.5-1.3-1.3-2.5-2.2-3.6c-1-1.1-2.1-1.9-3.3-2.6c-1.3-0.6-2.7-1-4.1-1h-3.8l4.5-19.1h11V45H472l-2.3,9.8
	c1.9,0.4,3.6,1,5.2,2s3,2.2,4.1,3.6s2.1,3,2.8,4.7c0.6,1.7,1,3.6,1,5.5c0,2-0.4,4-1.1,5.8c-0.7,1.9-1.8,3.5-3.1,4.9
	c-1.3,1.4-2.9,2.6-4.6,3.5c-1.8,0.9-3.7,1.5-5.7,1.7L467.8,81.9z"/>
<path class="st0" d="M502.8,87.8l-5.3-45.5l10.6-1.4l0.6,4.7l-5.9,0.8l0.5,5l8.3-1.6l0.9,4.8l-8.7,1.6l3,25.9l6.3-1.2l0.8,4.8
	L502.8,87.8z"/>
<path class="st0" d="M529.6,78.1c0,1-0.3,1.9-0.6,2.7c-0.4,0.8-0.9,1.6-1.6,2.2c-0.7,0.6-1.4,1.1-2.3,1.5c-0.9,0.4-1.8,0.5-2.8,0.5
	s-1.9-0.2-2.8-0.6c-0.9-0.4-1.7-0.9-2.3-1.5c-0.7-0.6-1.2-1.4-1.6-2.3c-0.4-0.9-0.6-1.8-0.6-2.8v-0.4l1.9-37.2l4.8,0.2l-1.9,37.2
	c0,0.8,0.3,1.4,0.8,1.8s1,0.7,1.7,0.7c0.6,0,1.2-0.2,1.7-0.6c0.4-0.4,0.7-1,0.7-1.6l1.9-37.1l4.8,0.2L529.6,78.1z"/>
<path class="st0" d="M551,79.5c0,1.4,0,2.7-0.1,4.1s-0.3,2.7-0.5,4.1l-4.8-0.7c0.4-2.6,0.5-5.3,0.5-8c0-2-0.1-4-0.4-6.1
	c-0.2-2-0.6-4-1.1-6s-1.2-3.9-1.9-5.8c-0.8-1.9-1.7-3.6-2.9-5.3h-1.5l-1.8,30.4l-4.9-0.3l2.8-45.8c0.7-0.3,1.4-0.5,2.1-0.8
	c0.7-0.2,1.4-0.3,2.2-0.3c1.2,0,2.2,0.2,3.3,0.6c1,0.4,1.9,1,2.7,1.8c0.8,0.7,1.4,1.6,1.9,2.6c0.4,1,0.7,2.1,0.7,3.3
	c0,1.3-0.3,2.4-0.8,3.6s-1.2,2.1-2.2,2.9c1.2,1.9,2.2,3.9,3,6s1.5,4.2,2,6.4c0.5,2.2,0.9,4.4,1.2,6.6L551,79.5z M542.6,47.3
	c0-0.4-0.1-0.9-0.3-1.3s-0.4-0.8-0.7-1.1c-0.3-0.3-0.7-0.6-1.1-0.8c-0.4-0.2-0.9-0.3-1.3-0.3l-0.5,7.2c1.1,0,2.1-0.3,2.8-1
	L542.6,47.3z"/>
<path class="st2" d="M563.6,58.7v-4.9h30.5v4.9H563.6z M563.6,67.6v-4.8h30.5v4.8H563.6z"/>
<path class="st2" d="M637.9,60.1c0,1.4-0.1,2.9-0.4,4.4c-0.3,1.5-0.7,2.9-1.2,4.3s-1.2,2.8-2,4c-0.8,1.3-1.7,2.4-2.8,3.3
	c-1.1,1-2.3,1.7-3.6,2.2c-1.4,0.5-2.9,0.8-4.5,0.8c-1.7,0-3.2-0.3-4.5-0.8c-1.4-0.5-2.6-1.3-3.7-2.2c-1.1-0.9-2-2-2.8-3.3
	s-1.5-2.6-2-4s-0.9-2.9-1.2-4.4s-0.4-3-0.4-4.4s0.1-2.8,0.4-4.3c0.3-1.5,0.7-2.9,1.3-4.3c0.5-1.4,1.2-2.8,2.1-4
	c0.8-1.3,1.8-2.4,2.9-3.3c1.1-1,2.3-1.7,3.6-2.3c1.3-0.6,2.8-0.9,4.3-0.9c1.6,0,3,0.3,4.3,0.9s2.5,1.3,3.6,2.3s2,2.1,2.9,3.4
	c0.8,1.3,1.5,2.6,2,4s1,2.9,1.2,4.3L637.9,60.1z M633,60.1c0-1-0.1-2-0.2-3c-0.2-1.1-0.4-2.1-0.7-3.2s-0.8-2.1-1.3-3
	c-0.5-1-1.1-1.8-1.8-2.6c-0.7-0.7-1.6-1.3-2.5-1.8c-0.9-0.4-2-0.6-3.1-0.6c-1.2,0-2.2,0.2-3.2,0.6c-0.9,0.4-1.8,1-2.5,1.8
	c-0.7,0.7-1.3,1.6-1.9,2.5c-0.5,1-0.9,2-1.2,3c-0.3,1.1-0.6,2.1-0.7,3.2c-0.2,1.1-0.2,2.1-0.2,3.1s0.1,2,0.2,3
	c0.1,1.1,0.4,2.2,0.7,3.2c0.3,1.1,0.7,2.1,1.2,3.1s1.1,1.8,1.9,2.6c0.7,0.7,1.5,1.3,2.5,1.8c0.9,0.4,2,0.7,3.2,0.7s2.2-0.2,3.1-0.7
	c0.9-0.4,1.8-1,2.5-1.8c0.7-0.7,1.3-1.6,1.8-2.6s0.9-2,1.3-3.1c0.3-1.1,0.6-2.1,0.7-3.2L633,60.1z"/>
<path class="st2" d="M649.2,79.9c0,0.6-0.1,1.2-0.4,1.8c-0.2,0.5-0.6,1-1,1.5c-0.4,0.4-0.9,0.7-1.5,1c-0.5,0.2-1.1,0.4-1.8,0.4
	c-0.6,0-1.2-0.1-1.8-0.4c-0.5-0.2-1-0.6-1.4-1s-0.7-0.9-1-1.5c-0.2-0.5-0.4-1.1-0.4-1.8c0-0.6,0.1-1.2,0.4-1.8c0.2-0.5,0.6-1,1-1.4
	s0.9-0.7,1.4-1c0.5-0.2,1.1-0.3,1.7-0.3c0.6,0,1.2,0.1,1.8,0.3c0.5,0.2,1,0.6,1.5,1c0.4,0.4,0.7,0.9,1,1.4L649.2,79.9z"/>
<path class="st2" d="M658.4,80.4l-1.1-34.7l-2.2,2.6l-3.7-3.1l5.8-6.8l4.7-0.2l1.4,42.1L658.4,80.4z"/>
<path class="st2" d="M669.3,78c1.4-0.2,2.8-0.6,4-1.2s2.3-1.4,3.2-2.5c0.9-1,1.6-2.1,2.2-3.4c0.5-1.3,0.8-2.6,0.8-4.1
	s-0.3-2.8-0.8-4.2c-0.5-1.3-1.3-2.4-2.2-3.5c-1-1-2.1-1.8-3.3-2.5c-1.3-0.6-2.6-1-4.1-1.1l0.4-4.8h0.4c0.7,0,1.4-0.1,2.1-0.3
	c0.6-0.2,1.2-0.5,1.6-1c0.4-0.4,0.8-0.9,1.1-1.5s0.4-1.2,0.4-2c0-0.7-0.1-1.3-0.4-1.9c-0.2-0.6-0.6-1.1-1-1.5s-0.9-0.8-1.5-1
	s-1.2-0.4-1.9-0.4c-0.9,0-1.7,0.2-2.4,0.6l-2.4-4.2c0.7-0.4,1.5-0.7,2.3-0.9c0.8-0.2,1.6-0.3,2.5-0.3c1.3,0,2.5,0.3,3.7,0.8
	s2.2,1.2,3,2.1c0.9,0.9,1.6,1.9,2.1,3.1s0.7,2.4,0.7,3.7c0,1.4-0.3,2.7-0.8,3.9c-0.5,1.3-1.3,2.3-2.4,3.2c1.2,0.7,2.2,1.6,3.2,2.6
	c0.9,1,1.7,2.1,2.4,3.2c0.7,1.2,1.2,2.4,1.5,3.8c0.3,1.3,0.5,2.7,0.5,4.1c0,2-0.4,4-1.1,5.8c-0.8,1.8-1.8,3.5-3.1,4.9
	s-2.9,2.6-4.6,3.5c-1.8,0.9-3.7,1.5-5.7,1.7L669.3,78z"/>
<path class="st2" d="M691.9,83.9l-5.3-45.5l10.6-1.4l0.6,4.7l-5.9,0.8l0.5,5l8.3-1.6l0.9,4.8l-8.7,1.6l3,25.9l6.3-1.2l0.8,4.8
	L691.9,83.9z"/>
<path class="st2" d="M715.6,43.5l-3.7-0.2l-2.5,39.4l-4.9-0.3L707,43l-3.7-0.3l0.3-4.8l12.2,0.8L715.6,43.5z"/>
<path class="st2" d="M730.2,83.7l-2.3-32.2l-4,0.2l2.2,32.3l-4.8,0.3l-3.2-45.5l4.8-0.3l0.6,8.5l4-0.3l-0.6-8.4l4.8-0.3l3.2,45.5
	L730.2,83.7z"/>
<path class="st3" d="M744,97c-13.8-1-29.3-1.6-44.8-1.8c-26.7-0.3-43.1-0.1-66.9,0.8c-5.2,0.2-13.3,0.5-18.1,0.6
	c-10.7,0.4-15.1,0.6-22.4,1c-8.7,0.6-12.2,1.1-15.5,2.1c-1.2,0.4-1.4,0.5-0.5,0.3c4.2-1.2,15.8-2,37.8-2.7
	c4.7-0.1,11.5-0.4,15.1-0.5c22.5-0.7,35.5-0.9,59.7-0.5c17.9,0.3,26.1,0.5,39.8,1.2c8.9,0.5,20.1,1.2,19.7,1.3
	c-0.3,0.1-13-0.1-26.7-0.4c-3.7-0.1-9.5-0.2-13-0.3s-7.9-0.2-9.8-0.2c-9.6-0.2-25-0.5-38.6-0.7c-30-0.4-45.8,0.2-61.3,2.1
	c-6.6,0.8-7.7,1.1-7.8,1.8c-0.1,1.1,0.5,1.1,14,0.6c27.8-1.1,54.9-0.7,82.7,1.2c15.6,1,39,3.3,38.4,3.6c-0.1,0.1-21.8,0.4-34.1,0.5
	c-8.8,0.1-19.3,0.3-31.3,0.7c-8.8,0.3-21.2,1.1-23.9,1.6c-1.1,0.2-1.6,0.8-1.1,1.4c0.5,0.6,2.7,0.7,13,0.4c22.7-0.5,35-0.3,53,1
	c2.9,0.2,6.6,0.4,8.1,0.5c3.3,0.1,7.9,0.5,10.5,0.9c1,0.1,1.8,0.3,1.9,0.2c0,0-2.5-0.5-8.7-1.7c-4-0.8-4.6-0.8-11.8-1.5
	c-12.6-1.2-20.3-1.5-33.6-1.4c-6.4,0.1-5.6,0,2.5-0.2c6.7-0.2,15.3-0.3,21.5-0.4c7.7-0.1,19-0.2,21.7-0.2c1.3,0,4.8-0.1,7.7-0.2
	c8.9-0.2,9.6-0.3,10-1c0.5-1-0.8-1.5-5.6-2.3c-6.5-1-28.7-3-44-3.8c-28-1.6-51.1-1.7-81.1-0.5c-1,0-0.1-0.1,1.8-0.3
	c19.1-2,36.4-2.2,96-0.8c21.7,0.5,44.4,0.8,51.3,0.7c5.1-0.1,6.5-0.4,6-1.6C755.2,98,752.9,97.7,744,97z M663.2,109.4
	c-0.1,0-0.2,0-0.3,0s0,0,0.1,0C663.2,109.4,663.3,109.4,663.2,109.4z"/>
<path class="st2" d="M229.4,11.9c0.2,0.2,0.4,0.1,0.6-0.1l0.9-1.7h0.1l0.9,1.7c0.2,0.3,0.3,0.3,0.6,0.1l0.8-0.6
	c0.2-0.2,0.3-0.3,0.1-0.6l-0.8-1.3V9.3h0.9c0.3,0,0.4-0.1,0.4-0.5V7.7c0-0.3-0.1-0.5-0.4-0.5h-1.7V5.5c0-0.3-0.1-0.5-0.4-0.5h-1
	c-0.3,0-0.4,0.1-0.4,0.5v1.7h-1.7c-0.3,0-0.4,0.1-0.4,0.5v1.1c0,0.3,0.1,0.5,0.4,0.5h0.9v0.1l-0.8,1.3c-0.2,0.3-0.1,0.4,0.1,0.6
	L229.4,11.9z"/>
<path class="st2" d="M64.4,11.9c0.2,0.2,0.4,0.1,0.6-0.1l0.9-1.7H66l0.9,1.7c0.2,0.3,0.3,0.3,0.6,0.1l0.8-0.6
	c0.2-0.2,0.3-0.3,0.1-0.6l-0.8-1.3V9.3h0.9c0.3,0,0.4-0.1,0.4-0.5V7.7c0-0.3-0.1-0.5-0.4-0.5h-1.7V5.5c0-0.3-0.1-0.5-0.4-0.5h-1
	C65.1,5,65,5.1,65,5.5v1.7h-1.7c-0.3,0-0.4,0.1-0.4,0.5v1.1c0,0.3,0.1,0.5,0.4,0.5h0.9v0.1l-0.8,1.3c-0.2,0.3-0.1,0.4,0.1,0.6
	L64.4,11.9z"/>
</svg>
