<svg width="47" height="38" viewBox="0 0 47 38" fill="none" xmlns="http://www.w3.org/2000/svg">
<path d="M44.6764 18.9142H40.7907L42.9041 16.5448C43.596 15.7582 43.4917 14.4693 42.7051 13.7869C41.9185 13.095 40.6296 13.1993 39.9472 13.9859L38.4687 15.6445V11.8156C38.4687 10.7352 37.5779 9.84429 36.4974 9.84429C35.417 9.84429 34.5261 10.7352 34.5261 11.8156V20.0609L32.1568 22.7146V18.8194C32.1568 17.739 31.2659 16.8481 30.1855 16.8481C29.1051 16.8481 28.2142 17.739 28.2142 18.8194V27.1405L25.4847 30.2017C25.2572 28.7706 24.9634 25.2261 24.9634 24.8375C24.8687 23.16 24.6696 21.2835 25.1625 20.0041C25.3615 19.4165 26.5462 15.2748 27.1338 14.384C28.0057 13.1329 30.2044 12.5453 32.261 10.1476C33.531 8.65962 34.1376 7.08637 34.0333 5.6079C33.9385 4.52747 33.0477 3.73137 31.9578 3.83562C30.8679 3.93988 30.0812 4.82127 30.1855 5.91117C30.1855 6.30922 30.0338 6.92525 28.9345 7.88247C27.7024 7.27592 28.726 4.77389 26.1386 1.0777C25.5226 0.205785 24.3664 -0.106969 23.4755 0.490106C22.5846 1.08718 22.2908 2.26238 22.8879 3.24803C25.134 6.10072 23.6177 8.07202 25.9112 10.2139C25.2383 10.6688 24.518 11.2185 23.9209 11.9862C23.1912 11.2375 22.7931 9.66422 22.5941 8.57432C22.3003 7.19062 22.0065 5.71215 21.2104 4.4327C20.6228 3.44705 19.4381 3.15325 18.5473 3.74085C17.5616 4.32845 17.2678 5.51312 17.8554 6.404C18.6799 7.72135 18.8695 12.8581 21.7032 15.5781C21.9022 16.0709 21.9022 16.6585 21.7032 17.1514C21.599 17.4167 20.1679 21.2645 20.9166 25.0365C21.0114 25.4346 21.3052 29.5194 21.5516 31.1589L18.0639 27.2353V19.0184C18.0639 17.938 17.173 17.0471 16.0926 17.0471C15.0122 17.0471 14.1213 17.938 14.1213 19.0184V22.7999L11.951 20.3642V12.1094C11.951 11.029 11.0601 10.1381 9.97969 10.1381C8.89927 10.1381 8.00839 11.029 8.00839 12.1094V15.9288L6.6247 14.3745C5.83807 13.4836 4.6534 13.4836 3.86677 14.1755C2.9759 14.9621 2.9759 16.1468 3.66775 16.9334L5.61061 19.1037H1.9713C0.890875 19.1037 0 19.9946 0 21.075C0 22.1554 0.890875 23.0463 1.9713 23.0463H9.11725L11.7614 26.0032H8.08421C7.00379 26.0032 6.11292 26.8941 6.11292 27.9745C6.11292 29.055 7.00379 29.9458 8.08421 29.9458H15.306L17.3057 32.1825C16.1589 32.7891 15.1543 33.8031 14.5952 35.0731C14.1024 36.0588 14.5004 37.1487 15.4861 37.6415C15.6851 37.7362 17.2488 38.267 17.9502 36.8549C18.244 36.2673 18.7368 35.7744 19.3339 35.5754C22.632 34.7224 27.7119 35.2816 32.1568 36.6558C33.2372 36.9496 34.3271 36.362 34.6209 35.3764C34.9147 34.296 34.3271 33.2061 33.3415 32.9123C31.8819 32.4479 30.5551 32.0877 29.2757 31.8224L31.029 29.8605H38.2792C39.3596 29.8605 40.2505 28.9697 40.3547 27.8892C40.3547 26.8088 39.4639 25.9179 38.3834 25.9179H34.5546L37.2841 22.8567H44.5911C45.6715 22.8567 46.6667 21.9659 46.6667 20.8854C46.6477 19.805 45.7568 18.9142 44.6764 18.9142Z" fill="#C2E978"/>
</svg>
