<svg width="19" height="21" viewBox="0 0 19 21" fill="none" xmlns="http://www.w3.org/2000/svg">
<path fill-rule="evenodd" clip-rule="evenodd" d="M12.6429 19.5971C14.4571 19.0835 16.3565 18.8244 18.1991 18.5871C18.596 18.5373 18.9644 18.815 18.9928 19.2062C19.0495 19.5977 18.7658 19.9557 18.3973 20.0055C16.6114 20.234 14.769 20.4785 13.0398 20.9729C12.6713 21.0802 12.2743 20.8594 12.1609 20.4796C12.0475 20.1002 12.2743 19.7047 12.6429 19.5971Z" fill="#C2E978"/>
<path fill-rule="evenodd" clip-rule="evenodd" d="M7.14367 12.3153C10.0634 9.30944 13.3517 6.6905 16.2148 3.60399C16.4699 3.31573 16.9235 3.30029 17.207 3.56939C17.4904 3.83878 17.5187 4.29176 17.2352 4.58002C14.3721 7.67539 11.0838 10.3029 8.16406 13.3176C7.88059 13.599 7.42715 13.603 7.14367 13.3262C6.88855 13.0497 6.8602 12.5967 7.14367 12.3153Z" fill="#C2E978"/>
<path fill-rule="evenodd" clip-rule="evenodd" d="M1.67301 0.753757C1.58797 2.47417 1.50309 4.19458 1.41805 5.91528C1.41805 6.30936 1.07772 6.61363 0.680857 6.59447C0.283995 6.57502 0.000688553 6.23958 0.000688553 5.84522C0.0857303 4.12195 0.170606 2.39896 0.255648 0.675971C0.283995 0.2819 0.624218 -0.0203736 1.02108 0.00107435C1.38959 0.0225223 1.70136 0.359972 1.67301 0.753757Z" fill="#C2E978"/>
</svg>
