<svg width="47" height="48" viewBox="0 0 47 48" fill="none" xmlns="http://www.w3.org/2000/svg">
<path d="M27.8837 16.7628C29.567 16.7628 31.0506 19.1403 31.45 19.9297C31.9636 21.2896 34.5409 21.3086 35.0164 20.0248C35.4158 19.1308 36.8994 16.8579 38.5827 16.8579C39.6764 16.8579 40.5608 15.9639 40.5608 14.8797C40.5608 13.7861 39.6669 12.9016 38.5827 12.9016C36.2242 12.9016 34.4363 14.2996 33.257 15.6691C32.0777 14.2616 30.2803 12.797 27.8837 12.797C26.79 12.797 25.9056 13.691 25.9056 14.7751C25.8961 15.8783 26.79 16.7628 27.8837 16.7628Z" fill="#C2E978"/>
<path d="M8.66423 12.0076C10.3475 12.0076 11.8311 14.3852 12.2306 15.1745C12.9153 16.6201 15.1692 16.5535 15.7969 15.2696C16.1963 14.3757 17.6799 12.1027 19.3632 12.1027C20.4569 12.1027 21.3413 11.2088 21.3413 10.1246C21.3413 9.03093 20.4474 8.14648 19.3632 8.14648C17.0047 8.14648 15.2168 9.54448 14.0375 10.9139C12.8582 9.50644 11.0608 8.04187 8.66423 8.04187C7.57056 8.04187 6.68611 8.93583 6.68611 10.02C6.6766 11.1232 7.57056 12.0076 8.66423 12.0076Z" fill="#C2E978"/>
<path d="M45.0218 0.718994H2.32101C1.22733 0.718994 0.333374 1.60344 0.333374 2.69712V45.3028C0.333374 46.3965 1.22733 47.281 2.3115 47.281H44.9172C46.0109 47.281 46.8953 46.387 47 45.3979V2.69712C47.0095 1.60344 46.1155 0.718994 45.0218 0.718994ZM43.0437 4.58014V38.037L39.4774 30.6381C37.3947 26.3775 34.5226 24 31.3462 24C28.3695 24 25.6971 25.9781 23.719 29.649C21.7408 25.9876 19.059 24 16.0918 24C12.9249 24 10.0433 26.3775 7.97007 30.6381L4.20403 38.446V4.58014H43.0437ZM41.1607 43.4198H6.04901L11.2416 32.3214C12.6301 29.5444 14.3134 27.9657 15.9016 27.9657C17.5849 27.9657 19.2682 29.5539 20.5616 32.3214C21.0561 33.5102 22.2449 34.2044 23.5383 34.2044C24.8222 34.2044 25.9158 33.5102 26.515 32.3214C27.9035 29.5444 29.5868 27.9657 31.175 27.9657C32.8583 27.9657 34.5416 29.5539 35.835 32.3214L41.1607 43.4198Z" fill="#C2E978"/>
</svg>
