<svg width="47" height="48" viewBox="0 0 47 48" fill="none" xmlns="http://www.w3.org/2000/svg">
<path d="M46.9408 20.8524C46.6257 18.1594 45.3269 16.1922 42.7581 15.1799C43.8372 12.105 43.3215 9.27829 41.106 6.70945C38.3557 4.15972 35.3572 3.74909 32.1103 5.32477C30.9166 2.93737 28.6247 1.2471 26.0368 0.75052C22.4748 0.330339 19.8869 1.50494 18.0724 3.93053C16.6782 3.03287 14.8829 2.53629 12.9921 2.44079C11.3973 2.3453 10.089 2.62224 9.0099 3.33846C5.21871 5.84999 6.6225 10.2046 6.82304 10.9017C5.4288 10.9972 3.63348 11.1023 2.24879 12.296C0.950052 13.3942 -2.2968 19.3531 4.93223 24.0419C4.73168 26.1333 5.4288 28.2247 6.82304 29.9149C8.30323 31.8821 10.6238 33.1809 14.3863 33.2955C15.4845 33.2 16.2771 32.3023 16.1816 31.2041C16.0861 30.1059 15.1885 29.3133 14.0903 29.4088C10.2609 29.4852 7.95944 26.7254 8.8189 23.4403C9.19134 22.323 8.58971 20.7378 7.02358 20.7569C5.00862 20.776 3.14646 17.0803 4.43565 15.4855C5.40016 14.8743 8.05494 15.2181 10.0126 14.5879C10.5092 14.3873 11.7411 13.5279 11.1108 11.9044C9.89801 9.63163 9.55422 7.81721 10.8148 6.82405C13.5077 6.05053 15.4272 7.02459 17.0888 8.61937C18.5308 10.1664 20.4121 9.48838 20.6699 7.62621C20.7941 6.7381 21.367 6.03143 21.7681 5.7354C24.7667 3.4244 28.8062 5.659 29.0354 9.42153C28.9399 11.045 31.7283 12.3055 32.817 10.0232C34.0775 8.0464 36.293 7.94135 38.1648 9.54568C39.9696 11.5988 39.6354 13.8334 37.8878 16.1922C36.6082 18.1403 38.795 19.9834 40.3803 19.0762C40.7813 18.7801 41.574 18.8756 42.0705 19.2767C44.4006 21.8646 42.4048 26.3625 37.8878 25.3502C36.8947 24.9491 35.7965 25.5508 35.3954 26.5439C34.9943 27.5371 35.5959 28.6353 36.5891 29.0364C41.8031 30.4688 47.1032 27.5084 46.9408 20.8524Z" fill="#C2E978"/>
<path d="M33.7049 16.8703C32.9123 16.1731 31.6135 16.3737 31.0215 17.2713L25.7501 24.529V16.7748C25.7501 15.6766 24.8524 14.7885 23.7638 14.7885C22.6751 14.7885 21.7775 15.6861 21.7775 16.7748V19.6778L17.9767 15.476C17.1841 14.6834 15.9904 14.6834 15.1883 15.3805C14.3957 16.1731 14.3957 17.3668 15.0928 18.169L21.7584 25.5795V45.3471C21.7584 46.4453 22.656 47.3334 23.7447 47.3334C24.8333 47.3334 25.731 46.4357 25.731 45.3471V31.1182L34.0964 19.5728C34.7936 18.7611 34.6026 17.4623 33.7049 16.8703Z" fill="#C2E978"/>
</svg>
