<svg style="display: none;" aria-hidden="true" xmlns="http://www.w3.org/2000/svg" xmlns:xlink="http://www.w3.org/1999/xlink"><symbol viewBox="0 0 24 24" fill="none" id="svg-Facebook"><path fill-rule="evenodd" clip-rule="evenodd" d="M2 6C2 4.93913 2.42143 3.92172 3.17157 3.17157C3.92172 2.42143 4.93913 2 6 2H18C19.0609 2 20.0783 2.42143 20.8284 3.17157C21.5786 3.92172 22 4.93913 22 6V18C22 19.0609 21.5786 20.0783 20.8284 20.8284C20.0783 21.5786 19.0609 22 18 22H6C4.93913 22 3.92172 21.5786 3.17157 20.8284C2.42143 20.0783 2 19.0609 2 18V6ZM6 4C5.46957 4 4.96086 4.21071 4.58579 4.58579C4.21071 4.96086 4 5.46957 4 6V18C4 18.5304 4.21071 19.0391 4.58579 19.4142C4.96086 19.7893 5.46957 20 6 20H12V13H11C10.7348 13 10.4804 12.8946 10.2929 12.7071C10.1054 12.5196 10 12.2652 10 12C10 11.7348 10.1054 11.4804 10.2929 11.2929C10.4804 11.1054 10.7348 11 11 11H12V9.5C12 8.57174 12.3687 7.6815 13.0251 7.02513C13.6815 6.36875 14.5717 6 15.5 6H16.1C16.3652 6 16.6196 6.10536 16.8071 6.29289C16.9946 6.48043 17.1 6.73478 17.1 7C17.1 7.26522 16.9946 7.51957 16.8071 7.70711C16.6196 7.89464 16.3652 8 16.1 8H15.5C15.303 8 15.108 8.0388 14.926 8.11418C14.744 8.18956 14.5786 8.30005 14.4393 8.43934C14.3001 8.57863 14.1896 8.74399 14.1142 8.92597C14.0388 9.10796 14 9.30302 14 9.5V11H16.1C16.3652 11 16.6196 11.1054 16.8071 11.2929C16.9946 11.4804 17.1 11.7348 17.1 12C17.1 12.2652 16.9946 12.5196 16.8071 12.7071C16.6196 12.8946 16.3652 13 16.1 13H14V20H18C18.5304 20 19.0391 19.7893 19.4142 19.4142C19.7893 19.0391 20 18.5304 20 18V6C20 5.46957 19.7893 4.96086 19.4142 4.58579C19.0391 4.21071 18.5304 4 18 4H6Z" fill="#E5E5E5"/></symbol><symbol viewBox="0 0 24 24" fill="none" id="svg-Instagram"><path fill-rule="evenodd" clip-rule="evenodd" d="M2 6C2 4.93913 2.42143 3.92172 3.17157 3.17157C3.92172 2.42143 4.93913 2 6 2H18C19.0609 2 20.0783 2.42143 20.8284 3.17157C21.5786 3.92172 22 4.93913 22 6V18C22 19.0609 21.5786 20.0783 20.8284 20.8284C20.0783 21.5786 19.0609 22 18 22H6C4.93913 22 3.92172 21.5786 3.17157 20.8284C2.42143 20.0783 2 19.0609 2 18V6ZM6 4C5.46957 4 4.96086 4.21071 4.58579 4.58579C4.21071 4.96086 4 5.46957 4 6V18C4 18.5304 4.21071 19.0391 4.58579 19.4142C4.96086 19.7893 5.46957 20 6 20H18C18.5304 20 19.0391 19.7893 19.4142 19.4142C19.7893 19.0391 20 18.5304 20 18V6C20 5.46957 19.7893 4.96086 19.4142 4.58579C19.0391 4.21071 18.5304 4 18 4H6ZM12 9C11.2044 9 10.4413 9.31607 9.87868 9.87868C9.31607 10.4413 9 11.2044 9 12C9 12.7956 9.31607 13.5587 9.87868 14.1213C10.4413 14.6839 11.2044 15 12 15C12.7956 15 13.5587 14.6839 14.1213 14.1213C14.6839 13.5587 15 12.7956 15 12C15 11.2044 14.6839 10.4413 14.1213 9.87868C13.5587 9.31607 12.7956 9 12 9ZM7 12C7 10.6739 7.52678 9.40215 8.46447 8.46447C9.40215 7.52678 10.6739 7 12 7C13.3261 7 14.5979 7.52678 15.5355 8.46447C16.4732 9.40215 17 10.6739 17 12C17 13.3261 16.4732 14.5979 15.5355 15.5355C14.5979 16.4732 13.3261 17 12 17C10.6739 17 9.40215 16.4732 8.46447 15.5355C7.52678 14.5979 7 13.3261 7 12ZM17.5 8C17.8978 8 18.2794 7.84196 18.5607 7.56066C18.842 7.27936 19 6.89782 19 6.5C19 6.10218 18.842 5.72064 18.5607 5.43934C18.2794 5.15804 17.8978 5 17.5 5C17.1022 5 16.7206 5.15804 16.4393 5.43934C16.158 5.72064 16 6.10218 16 6.5C16 6.89782 16.158 7.27936 16.4393 7.56066C16.7206 7.84196 17.1022 8 17.5 8Z" fill="#E5E5E5"/></symbol><symbol viewBox="0 0 24 93" fill="none" id="svg-arrow-right"><path fill-rule="evenodd" clip-rule="evenodd" d="M23.9257 40.7744C23.8882 40.5649 23.8232 40.338 23.7812 40.27C23.7393 40.202 23.7542 40.116 23.8144 40.0787C23.9542 39.992 23.9576 39.5926 23.8184 39.5926C23.7545 39.5926 23.7614 39.4865 23.8361 39.3222C23.9324 39.1107 23.926 38.9898 23.8068 38.7658C23.6925 38.5507 23.6868 38.4689 23.7836 38.4363C23.8819 38.4032 23.8834 38.3287 23.7897 38.1229C23.7059 37.9385 23.7023 37.8298 23.7784 37.7797C23.8398 37.7396 23.8971 37.503 23.9058 37.254C23.9183 36.8982 23.8709 36.7657 23.6836 36.6344C23.5526 36.5426 23.496 36.4673 23.5577 36.4673C23.6814 36.4673 23.7498 35.2205 23.6363 35.0365C23.5978 34.9741 23.5777 34.6106 23.5915 34.2287C23.6128 33.6392 23.5805 33.4958 23.3778 33.2796C23.1923 33.0819 23.1665 32.9918 23.2623 32.8763C23.4398 32.6621 23.3845 31.8052 23.1835 31.6563C23.0485 31.5564 23.0427 31.5028 23.1522 31.3704C23.2486 31.2542 23.2526 31.196 23.1662 31.1673C23.0896 31.1416 23.0445 30.7922 23.0431 30.2137C23.0419 29.7116 22.9649 29.034 22.8718 28.708C22.7788 28.382 22.7151 27.9552 22.7302 27.7596C22.7453 27.564 22.7076 27.3435 22.6465 27.2697C22.5852 27.1959 22.5335 27.0407 22.5314 26.9248C22.5236 26.4845 22.3823 25.8446 22.2472 25.637C22.1699 25.5182 22.1095 25.2222 22.1132 24.9793C22.1167 24.7363 22.0705 24.4453 22.0103 24.3327C21.9501 24.22 21.8664 23.8975 21.8242 23.6159C21.782 23.3343 21.7047 23.104 21.6522 23.104C21.5998 23.104 21.5569 23.0178 21.5569 22.9125C21.5569 22.8071 21.4842 22.617 21.3955 22.4902C21.3067 22.3632 21.2634 22.183 21.2992 22.0897C21.3349 21.9964 21.264 21.7275 21.1416 21.4922C21.0025 21.225 20.9599 21.0391 21.028 20.9969C21.0942 20.9559 21.0989 20.8804 21.0396 20.8043C20.986 20.7355 20.7898 20.2743 20.6035 19.7795C20.4172 19.2846 20.1709 18.7602 20.0562 18.614C19.9414 18.468 19.8743 18.2788 19.9068 18.1936C19.9474 18.0877 19.8905 18.0389 19.7263 18.0389C19.5469 18.0389 19.5144 18.0049 19.5975 17.9042C19.6749 17.8104 19.6631 17.6386 19.5585 17.3384C19.476 17.1013 19.4077 16.8951 19.4068 16.8804C19.4059 16.8656 19.2962 16.8527 19.1631 16.8518C18.9883 16.8506 18.9612 16.8246 19.0654 16.7585C19.1859 16.682 19.186 16.6286 19.0665 16.4368C18.9877 16.3103 18.8926 16.2068 18.8551 16.2068C18.8178 16.2068 18.7552 16.0008 18.716 15.7488C18.6125 15.0823 18.3228 14.3747 18.1534 14.3747C18.0727 14.3747 18.0066 14.3045 18.0066 14.2187C18.0066 14.1328 17.8864 13.9327 17.7397 13.774C17.5928 13.6153 17.4981 13.4444 17.529 13.3942C17.56 13.3439 17.4866 13.2179 17.3657 13.1143C17.2448 13.0107 17.1459 12.8154 17.1459 12.6804C17.1459 12.5322 17.0809 12.4349 16.9819 12.4349C16.8917 12.4349 16.7719 12.3137 16.7156 12.1655C16.6593 12.0173 16.5274 11.8953 16.4224 11.8944C16.2811 11.8931 16.2677 11.8698 16.371 11.8041C16.4822 11.7334 16.4713 11.6466 16.3172 11.3754C16.2108 11.1883 16.0633 11.035 15.9894 11.0346C15.9154 11.0342 15.8549 10.9369 15.8549 10.8184C15.8549 10.6998 15.8162 10.6028 15.7688 10.6028C15.7214 10.6028 15.5768 10.3846 15.4474 10.1179C15.3181 9.85115 15.1632 9.63291 15.1033 9.63291C15.0433 9.63291 14.9943 9.56017 14.9943 9.47126C14.9943 9.38149 14.8986 9.30961 14.7791 9.30961C14.6596 9.30961 14.5639 9.23773 14.5639 9.14795C14.5639 9.05904 14.5155 8.9863 14.4564 8.9863C14.3972 8.9863 14.3487 8.92574 14.3486 8.85159C14.3481 8.65039 13.7048 7.93006 13.6988 8.12415C13.6961 8.21306 13.6328 8.11607 13.5583 7.90861C13.4838 7.70116 13.2922 7.391 13.1327 7.21933C12.9731 7.04765 12.8426 6.86584 12.8426 6.81519C12.8426 6.76454 12.7713 6.72316 12.684 6.72316C12.5968 6.72316 12.4556 6.58802 12.3703 6.4227C12.285 6.25749 11.9932 5.93278 11.722 5.70119C11.4508 5.46959 11.2289 5.22765 11.2289 5.16353C11.2289 5.01675 10.6037 4.46023 10.4378 4.45937C10.3699 4.45894 10.233 4.31517 10.1333 4.13994C10.0338 3.9646 9.82803 3.78991 9.67612 3.75165C9.52421 3.7135 9.39995 3.62955 9.39995 3.5651C9.39995 3.37586 8.83805 2.84348 8.63826 2.84348C8.53735 2.84348 8.42686 2.77074 8.39276 2.68183C8.35876 2.59292 8.25032 2.52018 8.15188 2.52018C8.05333 2.52018 7.894 2.43536 7.79772 2.33158C7.55856 2.07401 7.1846 1.87356 6.94351 1.87356C6.83334 1.87356 6.63517 1.77959 6.50295 1.66471C6.37073 1.54993 6.19871 1.48053 6.12071 1.51049C6.03443 1.54368 5.98505 1.49282 5.99495 1.38063C6.01969 1.09763 5.79344 1.08319 5.64896 1.35864C5.57817 1.49368 5.5418 1.52644 5.56795 1.43139C5.60904 1.28256 5.30684 0.903644 5.14708 0.903644C5.11696 0.903644 4.89082 0.776262 4.64467 0.620536C4.27351 0.385815 4.16194 0.359196 3.99282 0.465025C3.84651 0.556629 3.74936 0.55997 3.64942 0.47688C3.5002 0.35273 3.16013 0.432695 3.16013 0.591869C3.16013 0.644784 3.11623 0.688107 3.06266 0.688107C3.00897 0.688107 2.99047 0.591115 3.02134 0.472569C3.0591 0.328051 3.02468 0.257032 2.91688 0.257032C2.82845 0.257032 2.69644 0.184934 2.6235 0.0968871C2.50742 -0.0432123 2.45707 -0.0365306 2.21931 0.150772C1.92303 0.384306 1.54638 0.436359 1.54638 0.243884C1.54638 0.156699 1.50722 0.155405 1.40631 0.239357C1.32928 0.303372 1.16156 0.328374 1.03364 0.294858C0.72423 0.213816 0.432571 0.506408 0.526707 0.803311C0.569309 0.937915 0.657957 1.00376 0.749187 0.968736C0.833641 0.936298 0.900881 0.974987 0.900881 1.05614C0.900881 1.21369 0.607286 1.32761 0.38986 1.25432C0.315844 1.22943 0.255381 1.1403 0.255381 1.05635C0.255381 0.862045 0.0809898 0.857195 0.00740242 1.04945C-0.0233669 1.12963 0.0446262 1.27512 0.158449 1.37276C0.384266 1.56642 0.685715 1.61018 0.685715 1.44917C0.685715 1.32707 1.14445 1.34183 1.23148 1.46674C1.26548 1.51545 1.40824 1.57752 1.54885 1.60457C1.68947 1.63173 1.84567 1.72764 1.89592 1.81763C1.94627 1.90762 2.12109 1.98133 2.2844 1.98133C2.47299 1.98133 2.70903 2.10634 2.93097 2.32371C3.18046 2.56803 3.3867 2.66847 3.65038 2.67396C3.92773 2.67989 4.02025 2.72892 4.02047 2.87042C4.02079 3.04232 4.12612 3.10234 4.30427 3.03208C4.34193 3.01721 4.41078 3.10827 4.45726 3.23425C4.52213 3.4097 4.6069 3.45097 4.81927 3.41035C5.02487 3.3709 5.09662 3.40226 5.09662 3.53137C5.09662 3.62728 5.14504 3.70563 5.20421 3.70563C5.26338 3.70563 5.31179 3.77838 5.31179 3.86729C5.31179 3.95619 5.36365 4.02894 5.42701 4.02894C5.49049 4.02894 5.61808 4.10481 5.7106 4.19749C5.82959 4.31668 5.91243 4.33252 5.99344 4.25137C6.16632 4.07819 6.29338 4.11364 6.25788 4.3253C6.23948 4.43512 6.29359 4.5139 6.38762 4.5139C6.47638 4.5139 6.57751 4.61089 6.61236 4.72944C6.64711 4.84798 6.73189 4.9329 6.80063 4.91803C6.86927 4.90327 6.92554 4.95543 6.92554 5.03399C6.92554 5.11255 7.04216 5.2866 7.18471 5.42077C7.42655 5.64827 7.44742 5.6514 7.49498 5.46647C7.53048 5.32885 7.54984 5.35611 7.55856 5.55559C7.56727 5.75679 7.70756 5.95056 8.02633 6.2022C8.70991 6.74159 8.87279 6.92781 8.83901 7.13117C8.81879 7.25273 8.89098 7.32763 9.05031 7.35037C9.1963 7.37106 9.29237 7.45976 9.29237 7.57388C9.29237 7.68262 9.46364 7.85322 9.69581 7.97575C9.91764 8.09279 10.1058 8.23472 10.1138 8.29108C10.1651 8.65491 10.3273 8.91054 10.5712 9.01195C10.7258 9.07629 10.8887 9.12101 10.933 9.11142C10.9773 9.10194 11.0211 9.15464 11.0301 9.22878C11.0391 9.30282 11.0577 9.41199 11.0715 9.47126C11.0852 9.53053 11.102 9.66956 11.1089 9.78023C11.1178 9.92615 11.1803 9.96592 11.3364 9.92497C11.5076 9.88014 11.5516 9.92173 11.5516 10.128C11.5516 10.2706 11.6066 10.3873 11.6737 10.3873C11.8319 10.3873 12.2614 10.8531 12.4623 11.2422C12.5488 11.4096 12.6939 11.5752 12.7848 11.6101C12.8757 11.6452 12.9502 11.7694 12.9502 11.8864C12.9502 12.0032 12.9874 12.1219 13.0328 12.1501C13.0783 12.1782 13.1024 11.9992 13.0864 11.7523C13.0605 11.3513 13.0707 11.3294 13.1824 11.5476C13.2685 11.716 13.3689 11.7723 13.5053 11.7289C13.7475 11.652 13.7593 11.7632 13.5354 12.0109C13.382 12.1808 13.3916 12.2207 13.648 12.4775C13.8021 12.6319 13.8776 12.7582 13.8157 12.7582C13.6687 12.7582 13.6696 13.0523 13.8167 13.1015C13.8791 13.1223 13.9445 13.2354 13.9619 13.3529C13.9818 13.4864 14.0768 13.5665 14.2154 13.5665C14.5234 13.5665 14.6194 13.693 14.4585 13.8872C14.368 13.9965 14.3622 14.0514 14.4412 14.0514C14.5064 14.0514 14.5902 14.1727 14.6273 14.3209C14.6644 14.469 14.7622 14.5903 14.8445 14.5903C14.9399 14.5903 14.9943 14.7103 14.9943 14.9211C14.9943 15.2422 15.437 16.0117 15.7909 16.3061C15.884 16.3834 15.9355 16.4867 15.9055 16.5354C15.8754 16.5841 15.9478 16.7968 16.0662 17.0081C16.1847 17.2194 16.257 17.3923 16.2269 17.3923C16.1154 17.3923 16.5395 18.0977 16.7335 18.2348C16.844 18.313 16.9052 18.4243 16.8696 18.482C16.8338 18.5399 16.8518 18.6456 16.9094 18.7172C16.9669 18.7886 17.048 19.0654 17.0896 19.3321C17.1312 19.5988 17.2819 19.9979 17.4245 20.2189C17.5671 20.4399 17.6839 20.7203 17.6839 20.8421C17.6839 20.9637 17.7639 21.2436 17.8618 21.464C17.9597 21.6844 18.0302 21.9077 18.0183 21.9603C18.0065 22.0128 18.0984 22.1642 18.2224 22.2965C18.3857 22.4707 18.4289 22.6138 18.3785 22.8147C18.334 22.9925 18.3707 23.1805 18.4805 23.3377C18.5749 23.4726 18.6521 23.792 18.6521 24.0474C18.6521 24.3495 18.7056 24.5323 18.8052 24.5706C18.8893 24.603 18.9856 24.7009 19.0191 24.7883C19.053 24.8767 19.0333 24.9184 18.9749 24.8822C18.9153 24.8453 18.8975 24.8895 18.9338 24.9844C18.969 25.0764 19.0774 25.1555 19.1746 25.1601C19.2719 25.1648 19.3017 25.1894 19.241 25.2149C19.1101 25.2698 19.1707 26.1215 19.3056 26.1215C19.3567 26.1215 19.3691 26.1979 19.3333 26.2915C19.2786 26.4345 19.3729 26.8305 19.7037 27.8458C19.7761 28.0681 19.8207 28.4267 19.8762 29.2343C19.9021 29.6128 19.9702 29.9523 20.0274 29.9887C20.1263 30.0518 20.1552 30.323 20.1948 31.5639C20.2043 31.8602 20.2571 32.1353 20.3122 32.175C20.3673 32.2148 20.4252 32.4573 20.4408 32.7139C20.4565 32.9705 20.4719 33.2093 20.4751 33.2444C20.4783 33.2796 20.598 33.4449 20.7409 33.6115C20.9586 33.8652 20.9773 33.938 20.8562 34.0594C20.7767 34.139 20.6625 34.2042 20.6026 34.2042C20.4489 34.2042 20.5839 35.7138 20.7606 35.9721C20.8629 36.1215 20.8706 36.2345 20.7888 36.3876C20.7243 36.5083 20.7093 36.765 20.7536 36.9906C20.796 37.2066 20.8459 38.5715 20.8644 40.0237C20.8831 41.4759 20.9017 42.7736 20.9059 42.9076C20.9102 43.0417 21.0221 43.2599 21.1545 43.3926L21.3955 43.634L21.1408 43.6701C20.9135 43.7023 20.8928 43.7471 20.9479 44.0876C20.9819 44.2973 21.0919 44.5599 21.1924 44.6711C21.3652 44.8625 21.3634 44.8733 21.1573 44.8733C20.9802 44.8733 20.9364 44.949 20.9231 45.2774C20.8846 46.2263 20.9192 46.7468 21.0298 46.8802C21.1175 46.9859 21.1052 47.0654 20.9823 47.1886C20.7768 47.3944 20.7487 49.4036 20.9495 49.5327C21.0284 49.5833 21.0051 49.6124 20.8845 49.6135C20.6826 49.6152 20.6433 49.9253 20.7953 50.3155C20.8496 50.4551 20.8283 50.569 20.7349 50.6388C20.6556 50.6982 20.5632 51.0377 20.5295 51.3933C20.4959 51.749 20.451 52.185 20.4298 52.3624C20.4086 52.5398 20.4393 52.7146 20.4979 52.7509C20.5642 52.7919 20.5506 52.8737 20.4621 52.9673C20.2953 53.1433 20.2185 53.9259 20.3681 53.9259C20.4241 53.9259 20.3956 54.1042 20.3047 54.3224C20.2138 54.5404 20.1564 54.8982 20.1773 55.1175C20.2047 55.4058 20.1775 55.5017 20.0792 55.4638C19.9583 55.4174 19.8862 55.6353 19.9339 55.9032C19.9428 55.9535 19.8697 56.293 19.7715 56.6576C19.6733 57.0223 19.5802 57.5631 19.5647 57.8594C19.5492 58.1558 19.5047 58.4953 19.4655 58.6138C19.4093 58.7846 19.4748 58.8726 19.7816 59.0377C20.094 59.2059 20.1363 59.2642 20.0012 59.3399C19.9091 59.3915 19.7858 59.404 19.7271 59.3677C19.6683 59.3313 19.6204 59.3589 19.6204 59.4289C19.6204 59.5249 19.5838 59.5259 19.4721 59.433C19.3549 59.3355 19.3102 59.361 19.2584 59.5545C19.1568 59.9346 19.1747 59.9803 19.3981 59.9093C19.574 59.8534 19.6048 59.8941 19.5969 60.1714C19.5893 60.4415 19.5428 60.4998 19.335 60.4998C18.9626 60.4998 18.6335 60.873 18.7159 61.2019C18.7533 61.3514 18.7096 61.6538 18.6167 61.886C18.493 62.1958 18.4816 62.3335 18.5722 62.4242C18.6628 62.5149 18.6334 62.6027 18.4574 62.7669C18.2775 62.9348 18.2319 63.0767 18.267 63.3595C18.2935 63.5745 18.2598 63.7657 18.1867 63.8129C18.1172 63.8577 17.9994 64.0642 17.9247 64.2717C17.8104 64.5898 17.814 64.6672 17.948 64.7658C18.0688 64.8548 18.0768 64.9127 17.9813 65.0083C17.9124 65.0774 17.7984 65.1338 17.728 65.1338C17.5444 65.1338 17.1523 66.0242 17.0734 66.6202C17.0365 66.8992 16.9409 67.2233 16.861 67.3402C16.781 67.457 16.7156 67.6236 16.7156 67.7103C16.7156 67.7969 16.6072 68.0892 16.4746 68.3598C16.3215 68.6722 16.2332 69.0523 16.2326 69.4008C16.2317 69.8211 16.1936 69.9474 16.0701 69.9397C15.9707 69.9334 15.8956 70.0434 15.8747 70.2259C15.856 70.389 15.8007 70.5223 15.7519 70.5223C15.6304 70.5223 15.317 71.3299 15.317 71.6428C15.317 71.7825 15.2444 71.9572 15.1557 72.031C14.9796 72.1773 14.9339 72.5699 15.0929 72.5699C15.1472 72.5699 15.2159 72.5093 15.2458 72.4352C15.2792 72.3523 15.3034 72.3707 15.3085 72.4829C15.3132 72.5833 15.1708 72.752 14.9921 72.8577C14.8134 72.9634 14.6909 73.1116 14.7198 73.1871C14.7487 73.2625 14.7303 73.3243 14.6788 73.3243C14.6273 73.3243 14.5903 73.5028 14.5964 73.7211C14.6028 73.9437 14.5508 74.1369 14.4782 74.1612C14.4071 74.1849 14.3488 74.2671 14.3488 74.3439C14.3488 74.4206 14.2762 74.5437 14.1874 74.6175C14.0986 74.6913 14.026 74.8427 14.026 74.9539C14.026 75.0653 13.9245 75.2581 13.8003 75.3824C13.6549 75.5281 13.5919 75.6992 13.6233 75.8636C13.6501 76.0039 13.6185 76.141 13.5532 76.1682C13.4736 76.2012 13.4827 76.2516 13.581 76.3205C13.7048 76.4074 13.7048 76.4339 13.581 76.4904C13.4683 76.5418 13.4652 76.5718 13.5678 76.6198C13.6705 76.6679 13.6652 76.7185 13.5456 76.8385C13.4598 76.9244 13.4164 77.0781 13.4491 77.1801C13.4946 77.3223 13.484 77.3314 13.4041 77.2193C13.3163 77.0963 13.285 77.0963 13.2057 77.2193C13.154 77.2997 13.1066 77.4383 13.1006 77.5272C13.0946 77.6161 13.0824 77.7738 13.0737 77.8775C13.065 77.9812 12.9852 78.0661 12.8964 78.0661C12.7841 78.0661 12.735 78.1792 12.735 78.4379C12.735 78.663 12.6687 78.847 12.5669 78.904C12.4745 78.9558 12.3875 79.0746 12.3739 79.1679C12.3602 79.2612 12.2866 79.4129 12.2105 79.5049C12.1342 79.5969 12.101 79.7647 12.1369 79.8778C12.1753 79.9991 12.1348 80.139 12.0382 80.2194C11.9481 80.2943 11.874 80.4345 11.8736 80.531C11.8733 80.6275 11.7768 80.8519 11.6592 81.0297C11.5416 81.2075 11.4451 81.438 11.4448 81.5416C11.4444 81.6453 11.4059 81.7302 11.3595 81.7302C11.2751 81.7302 11.2314 81.9823 11.2302 82.4758C11.2297 82.6191 11.1519 82.8221 11.0573 82.927C10.9625 83.0318 10.9114 83.1603 10.9436 83.2126C10.9758 83.2647 10.9079 83.3755 10.7927 83.4587C10.6776 83.5418 10.5834 83.666 10.5834 83.7345C10.5834 83.8032 10.5107 83.9195 10.422 83.9934C10.2139 84.1663 10.2139 84.4244 10.422 84.4244C10.5107 84.4244 10.5834 84.3759 10.5834 84.3167C10.5834 84.2574 10.6273 84.2089 10.6808 84.2089C10.7344 84.2089 10.7229 84.3265 10.6552 84.4702C10.564 84.6638 10.4969 84.7023 10.3964 84.6186C10.3217 84.5566 10.2557 84.5482 10.2495 84.5999C10.2434 84.6515 10.223 84.8783 10.2041 85.1037C10.1671 85.5481 9.99769 85.8254 9.76337 85.8254C9.68182 85.8254 9.61512 85.8756 9.61512 85.937C9.61512 85.9984 9.53217 86.1754 9.43083 86.3303C9.32938 86.4854 9.23578 86.6849 9.22276 86.7738C9.20974 86.8627 9.14035 86.9718 9.0687 87.0162C8.99695 87.0606 8.96822 87.175 9.00469 87.2704C9.04611 87.3784 8.99114 87.494 8.85902 87.5767C8.7423 87.6496 8.64687 87.7894 8.64687 87.8873C8.64687 87.9872 8.52896 88.0948 8.37791 88.1329C8.22999 88.1701 8.10895 88.2758 8.10895 88.3677C8.10895 88.5164 8.09099 88.5171 7.94758 88.3734C7.85882 88.2845 7.78621 88.1598 7.78621 88.0962C7.78621 88.0327 7.7365 87.9808 7.67582 87.9808C7.6131 87.9808 7.63774 87.841 7.73295 87.6565C7.85323 87.4235 7.87023 87.2759 7.7933 87.1318C7.73435 87.0217 7.71939 86.8982 7.75995 86.8575C7.80051 86.8169 7.76393 86.7404 7.67851 86.6875C7.54382 86.6041 7.54425 86.5834 7.68163 86.5308C7.81439 86.48 7.83128 86.2219 7.78621 84.9354C7.75662 84.0913 7.68992 83.3346 7.63795 83.2539C7.57717 83.1594 7.59632 83.0736 7.69175 83.0131C7.80987 82.9381 7.81116 82.9187 7.69788 82.9173C7.61967 82.9164 7.49272 82.8526 7.4158 82.7756C7.30111 82.6607 7.30972 82.5938 7.46378 82.4032C7.61482 82.2164 7.63408 82.0805 7.56211 81.7081C7.51305 81.4536 7.47077 81.2089 7.46819 81.1644C7.46561 81.1199 7.39084 81.0836 7.30208 81.0836C7.21332 81.0836 7.14071 81.0336 7.14071 80.9725C7.14071 80.9113 7.21332 80.8334 7.30208 80.7993C7.49368 80.7256 7.51122 80.5279 7.34124 80.3577C7.19891 80.2151 6.90273 80.4467 6.93296 80.6771C6.97492 80.9962 6.91188 81.0979 6.68348 81.0794C6.12146 81.0338 5.96224 81.079 6.03314 81.264C6.08553 81.4007 6.05863 81.4276 5.92222 81.3751C5.81474 81.3338 5.74148 81.3588 5.74062 81.4372C5.73986 81.5095 5.70996 81.6777 5.67435 81.811C5.62658 81.9893 5.65552 82.0535 5.78333 82.0535C5.9816 82.0535 6.00441 82.1949 5.85229 82.4798C5.76924 82.6354 5.79161 82.688 5.95987 82.732C6.07681 82.7626 6.17246 82.844 6.17246 82.9129C6.17246 82.9887 6.08811 83.0112 5.95794 82.9698C5.78903 82.9161 5.75805 82.9397 5.81227 83.0812C5.85014 83.1799 5.82088 83.2979 5.74739 83.3435C5.67392 83.389 5.60549 83.6023 5.59538 83.8176C5.58086 84.1268 5.6169 84.2089 5.76719 84.2089C6.02668 84.2089 6.0085 84.4936 5.74449 84.5628C5.55181 84.6132 5.53599 84.6921 5.57623 85.4023C5.60646 85.935 5.57322 86.2782 5.47263 86.4731C5.34676 86.7169 5.34686 86.8033 5.47317 87.0472C5.55493 87.205 5.58462 87.3342 5.53922 87.3342C5.49382 87.3342 5.47801 87.4797 5.50404 87.6575C5.53008 87.8353 5.61335 87.9808 5.68909 87.9808C5.895 87.9808 5.96837 88.2767 5.78032 88.3491C5.54998 88.4376 5.50447 88.4277 5.58 88.3053C5.6184 88.2431 5.57257 88.227 5.46972 88.2665C5.32868 88.3207 5.32223 88.3525 5.43723 88.4269C5.55471 88.5028 5.55149 88.5392 5.41937 88.6274C5.28554 88.7168 5.28296 88.7512 5.40399 88.8295C5.50232 88.8931 5.51222 88.9471 5.43433 88.9953C5.37075 89.0348 5.32287 89.2226 5.32814 89.4129C5.33331 89.6033 5.32599 89.8075 5.3119 89.8668C5.25875 90.0905 5.31685 90.1584 5.45972 90.0396C5.57838 89.941 5.60765 89.9686 5.60765 90.179C5.60765 90.3449 5.53352 90.4608 5.40593 90.4942C5.12836 90.5669 5.15235 90.7578 5.44627 90.8145L5.68833 90.8613L5.44627 90.8759C5.11728 90.8958 5.09135 91.4294 5.41937 91.4294C5.53772 91.4294 5.63454 91.4734 5.63454 91.527C5.63454 91.5808 5.54643 91.6017 5.43874 91.5735C5.20152 91.5113 4.95763 91.7775 5.00765 92.0439C5.02766 92.1505 5.15224 92.2853 5.28447 92.3436C5.41669 92.4019 5.51964 92.4989 5.51319 92.5591C5.4836 92.8359 5.54976 92.9158 5.85993 92.9779C6.12394 93.0309 6.23324 92.9946 6.38838 92.8028C6.56406 92.5857 6.6186 92.574 6.92296 92.6889C7.22354 92.8024 7.28831 92.7903 7.49562 92.5826C7.62418 92.4539 7.82687 92.362 7.94607 92.3787C8.10777 92.4013 8.12563 92.3838 8.01676 92.3099C7.91488 92.2407 7.9067 92.1885 7.98986 92.137C8.05538 92.0965 8.10895 91.9744 8.10895 91.8657C8.10895 91.6385 8.31272 91.5372 8.76962 91.5372C8.94574 91.5372 9.06537 91.4973 9.03524 91.4486C8.97414 91.3495 9.34347 90.9983 9.50872 90.9983C9.56724 90.9983 9.61512 90.9323 9.61512 90.8517C9.61512 90.7537 9.70355 90.7218 9.88096 90.7559C10.0846 90.7949 10.2168 90.723 10.4458 90.449C11.0079 89.7766 11.3397 89.4788 11.4504 89.5473C11.6001 89.6401 12.0895 89.3077 12.0895 89.1132C12.0895 89.0191 12.1533 88.982 12.2509 89.0195C12.3582 89.0608 12.4135 89.0144 12.4157 88.8814C12.4211 88.5644 12.6799 88.3041 12.9899 88.3041C13.2485 88.3041 13.2623 88.2841 13.1394 88.0871C13.0206 87.8963 13.0433 87.8369 13.3268 87.5966C13.5043 87.4463 13.8069 87.2523 13.9991 87.1656C14.3914 86.9888 14.4377 86.8559 14.1614 86.701C13.8904 86.5491 14.0827 86.4204 14.5621 86.433C14.8801 86.4414 14.963 86.408 14.9178 86.2899C14.881 86.1939 14.9451 86.1133 15.0879 86.0759C15.214 86.0428 15.317 85.9532 15.317 85.8768C15.317 85.787 15.2315 85.7588 15.075 85.7973L14.8329 85.8567L15.0878 85.6288C15.4352 85.3179 15.7508 85.2304 15.8778 85.4098C15.9535 85.5169 15.9676 85.4933 15.9303 85.3216C15.8937 85.1535 15.9215 85.1034 16.0285 85.1445C16.1106 85.1761 16.1777 85.1444 16.1777 85.0742C16.1777 85.0039 16.3738 84.7577 16.6135 84.5269C16.8532 84.2963 17.041 84.0455 17.031 83.9697C16.9649 83.4678 17.0374 83.3467 17.4048 83.3467C17.7129 83.3467 17.7627 83.3139 17.7174 83.1404C17.6807 82.9997 17.7536 82.8749 17.946 82.7485C18.1014 82.6466 18.2552 82.59 18.2879 82.6227C18.3628 82.6977 18.6996 82.3645 18.8822 82.0348C19.02 81.7858 19.0432 81.7215 19.069 81.5147C19.0764 81.4554 19.1793 81.4069 19.2976 81.4069C19.42 81.4069 19.5128 81.335 19.5128 81.2402C19.5128 81.1486 19.6577 80.9909 19.8349 80.8899C20.2279 80.666 20.2479 80.4829 19.8893 80.3927C19.7414 80.3555 19.6204 80.25 19.6204 80.1583C19.6204 80.0406 19.6836 80.0115 19.8349 80.0596C19.9947 80.1105 20.0339 80.0875 19.9888 79.9697C19.8901 79.7121 19.5198 79.6743 19.3746 79.907C19.3038 80.0207 19.1768 80.1137 19.0924 80.1137C19.008 80.1137 18.9703 80.145 19.0086 80.1834C19.086 80.261 18.3414 80.8603 18.1617 80.8651C18.046 80.8681 17.6839 81.5918 17.6839 81.8203C17.6839 81.8893 17.7624 81.9458 17.8584 81.9458C18.0013 81.9458 18.0088 81.975 17.899 82.1074C17.8253 82.1963 17.6863 82.2698 17.59 82.2707C17.4403 82.2721 17.4378 82.2868 17.5732 82.3726C17.6602 82.4278 17.6939 82.5105 17.648 82.5565C17.5444 82.6602 17.3527 82.3699 17.4358 82.2352C17.4918 82.1444 17.2876 81.9511 17.1316 81.9474C17.0941 81.9465 17.0383 82.0425 17.0074 82.1608C16.9765 82.279 16.8619 82.41 16.7527 82.4518C16.4442 82.5702 16.1721 82.946 16.2129 83.1973C16.2414 83.3731 16.2049 83.4132 16.0524 83.3734C15.9438 83.3449 15.8549 83.2777 15.8549 83.2239C15.8549 83.1702 15.731 83.2076 15.5795 83.307C15.4091 83.4188 15.349 83.5155 15.4218 83.5606C15.6374 83.6941 15.4126 83.9804 15.0658 84.0142C14.7569 84.0441 14.7222 84.0849 14.6919 84.4517C14.6611 84.8252 14.6413 84.8469 14.4336 84.7355C14.2397 84.6316 14.2185 84.6408 14.2802 84.8021C14.335 84.9451 14.3064 84.9773 14.1589 84.9387C13.921 84.8763 13.6627 85.133 13.7457 85.3494C13.7855 85.4534 13.7105 85.5457 13.5308 85.6141C13.1845 85.746 12.9999 85.6479 13.1816 85.4286C13.2554 85.3395 13.3228 85.1135 13.3313 84.9263C13.3563 84.3743 13.3738 84.3167 13.5158 84.3167C13.6455 84.3167 13.9184 83.6276 13.9184 83.2999C13.9184 83.213 13.9887 83.1025 14.0744 83.0545C14.1649 83.0037 14.249 82.7512 14.2745 82.4535C14.2988 82.1711 14.3479 81.9107 14.3837 81.8748C14.4195 81.839 14.4042 81.7261 14.3496 81.6242C14.266 81.4676 14.2918 81.4465 14.5148 81.4892C14.6742 81.5197 14.7791 81.4896 14.7791 81.4132C14.7791 81.3434 14.7307 81.3164 14.6715 81.353C14.3868 81.5293 14.6046 81.106 15.0519 80.6135C15.1833 80.469 15.4183 79.6994 15.402 79.4671C15.3649 78.9357 15.4368 78.6049 15.5893 78.6049C15.68 78.6049 15.7842 78.52 15.8208 78.4163C15.8576 78.3127 15.9484 78.155 16.0228 78.0661C16.097 77.9772 16.1735 77.7589 16.1926 77.5811C16.2118 77.4033 16.3149 77.0955 16.4217 76.8972C16.5285 76.6989 16.5867 76.4443 16.551 76.3314C16.5148 76.2172 16.5368 76.1262 16.6008 76.1262C16.664 76.1262 16.7156 76.005 16.7156 75.8568C16.7156 75.7086 16.7669 75.5874 16.8295 75.5874C16.8922 75.5874 16.9133 75.5386 16.8766 75.4789C16.8398 75.4192 16.9095 75.2298 17.0316 75.0581C17.1537 74.8864 17.2535 74.6927 17.2535 74.6278C17.2535 74.5628 17.3019 74.5097 17.3611 74.5097C17.4203 74.5097 17.4687 74.3982 17.4687 74.2618C17.4687 74.1255 17.5118 73.9678 17.5647 73.9116C17.6174 73.8552 17.7843 73.399 17.9357 72.8976C18.1539 72.1749 18.1841 71.9529 18.0818 71.8262C17.979 71.6988 17.9818 71.6838 18.0956 71.7523C18.2646 71.8543 18.637 71.5009 18.5707 71.3014C18.5466 71.2288 18.6276 71.0058 18.7508 70.8061C18.8741 70.6063 18.9749 70.3086 18.9749 70.1442C18.9749 69.98 19.0466 69.7917 19.1342 69.7259C19.2219 69.6601 19.3114 69.5092 19.3332 69.3907C19.3551 69.2721 19.4001 69.1024 19.4334 69.0135C19.6374 68.4682 19.7045 68.1385 19.6522 67.9382C19.6147 67.7946 19.6598 67.6612 19.7744 67.5773C19.8749 67.5038 19.9605 67.289 19.966 67.0973C19.9714 66.9065 20.0221 66.7504 20.0786 66.7504C20.135 66.7504 20.1555 66.6829 20.1238 66.6006C20.0923 66.5181 20.165 66.3447 20.2855 66.2152C20.4424 66.0464 20.4874 65.8929 20.4437 65.6742C20.403 65.4705 20.4314 65.3501 20.5291 65.3126C20.6097 65.2816 20.7558 64.9014 20.8538 64.4676C20.9517 64.0338 21.1036 63.5685 21.1913 63.4334C21.279 63.2984 21.3252 63.1467 21.2941 63.0962C21.263 63.0459 21.312 62.8552 21.403 62.6724C21.565 62.347 21.5623 61.7315 21.3972 61.335C21.3342 61.1835 21.3739 61.1464 21.5991 61.1464C21.7768 61.1464 21.8796 61.0871 21.8796 60.9847C21.8796 60.8958 21.9202 60.8231 21.9698 60.8231C22.0194 60.8231 22.0665 60.6477 22.0745 60.4334C22.0826 60.219 22.1419 59.98 22.2064 59.9021C22.3407 59.74 22.4427 59.1909 22.424 58.7299C22.417 58.5566 22.4671 58.3803 22.5353 58.338C22.6036 58.2958 22.6809 58.001 22.707 57.6831C22.7763 56.8409 22.7738 56.7008 22.6846 56.4251C22.6214 56.2293 22.6495 56.1645 22.8163 56.1207C23.0336 56.0638 23.0353 56.0557 23.1157 54.6803C23.1482 54.1236 23.2043 53.8562 23.3109 53.7494C23.3521 53.7082 23.3858 53.4498 23.3858 53.1751C23.3858 52.9005 23.4314 52.6297 23.4872 52.5734C23.5705 52.4893 23.615 51.8057 23.5956 50.9084C23.5936 50.8194 23.6442 50.5285 23.7079 50.2617C23.88 49.5414 23.9149 48.9319 23.7926 48.7813C23.732 48.7065 23.7223 48.5645 23.7707 48.458C23.886 48.2038 23.9229 46.1665 23.8122 46.1665C23.7642 46.1665 23.7922 46.0315 23.8744 45.8665C23.9668 45.6809 24.0134 45.3005 23.9966 44.8694C23.9684 44.1486 23.8734 43.8552 23.7023 43.9611C23.6479 43.9948 23.6322 43.9471 23.6674 43.8551C23.7027 43.7631 23.7807 43.6878 23.8407 43.6878C23.9038 43.6878 23.8933 43.6194 23.8161 43.5262C23.7073 43.3948 23.7121 43.3645 23.8418 43.3645C23.973 43.3645 23.9947 43.2077 23.9637 42.4856C23.9429 42.0021 23.9029 41.5836 23.8748 41.5553C23.8467 41.5272 23.862 41.4257 23.9088 41.3298C23.9556 41.2337 23.9633 40.9839 23.9257 40.7744ZM21.2642 79.0629C21.2378 78.9889 21.0628 78.9338 20.8755 78.9407C20.6465 78.9491 20.6054 78.9706 20.75 79.0063C20.8683 79.0354 21.0268 79.1094 21.1022 79.1707C21.2623 79.3009 21.3324 79.2542 21.2642 79.0629ZM21.0189 49.2918C20.9598 49.2918 20.9114 49.2404 20.9114 49.1777C20.9114 49.115 20.9598 49.0935 21.0189 49.1302C21.0781 49.1668 21.1265 49.2181 21.1265 49.2443C21.1265 49.2705 21.0781 49.2918 21.0189 49.2918ZM20.7266 79.5748C20.516 79.5748 20.2659 79.7655 20.2659 79.9261C20.2659 79.9769 20.3263 79.9807 20.4003 79.9342C20.4742 79.8879 20.6032 79.8487 20.6869 79.8471C20.9203 79.8428 20.9593 79.5748 20.7266 79.5748ZM20.5236 30.2953C20.4879 30.2595 20.484 30.1665 20.5151 30.0888C20.5494 30.0028 20.5749 30.0284 20.5801 30.1539C20.5847 30.2675 20.5593 30.3311 20.5236 30.2953ZM20.3734 79.3054C20.3143 79.2688 20.2659 79.3145 20.2659 79.4068C20.2659 79.4992 20.3143 79.5748 20.3734 79.5748C20.4326 79.5748 20.481 79.5293 20.481 79.4734C20.481 79.4176 20.4326 79.3421 20.3734 79.3054ZM20.0443 28.4924C19.9886 28.4924 19.9431 28.444 19.9431 28.3847C19.9431 28.3254 20.0186 28.2769 20.1108 28.2769C20.203 28.2769 20.2486 28.3254 20.2121 28.3847C20.1755 28.444 20.1001 28.4924 20.0443 28.4924ZM20.0032 22.9962C19.9771 22.9962 19.9259 22.9477 19.8893 22.8885C19.8527 22.8292 19.8741 22.7807 19.9368 22.7807C19.9994 22.7807 20.0507 22.8292 20.0507 22.8885C20.0507 22.9477 20.0294 22.9962 20.0032 22.9962ZM18.948 22.7443C18.8739 22.7144 18.9345 22.69 19.0824 22.69C19.2304 22.69 19.2908 22.7144 19.2169 22.7443C19.1429 22.7742 19.0219 22.7742 18.948 22.7443ZM18.1142 21.4875C18.055 21.4875 18.0074 21.4026 18.0082 21.2989C18.0096 21.1377 18.0251 21.1338 18.1142 21.2719C18.2454 21.4753 18.2454 21.4875 18.1142 21.4875ZM17.332 70.4284C17.157 70.2532 17.3208 70.153 17.5048 70.3228C17.5918 70.4031 17.6149 70.4859 17.5563 70.5074C17.4977 70.5289 17.3968 70.4934 17.332 70.4284ZM17.4687 19.4938C17.4095 19.5304 17.3611 19.509 17.3611 19.4462C17.3611 19.3835 17.4095 19.3321 17.4687 19.3321C17.5279 19.3321 17.5763 19.3534 17.5763 19.3796C17.5763 19.4058 17.5279 19.4571 17.4687 19.4938ZM16.6618 82.9157C16.5731 82.9157 16.5004 82.8672 16.5004 82.8079C16.5004 82.7486 16.5731 82.7001 16.6618 82.7001C16.7506 82.7001 16.8232 82.7486 16.8232 82.8079C16.8232 82.8672 16.7506 82.9157 16.6618 82.9157ZM12.735 86.5798C12.6759 86.5798 12.6274 86.5585 12.6274 86.5323C12.6274 86.5061 12.6759 86.4548 12.735 86.4182C12.7942 86.3815 12.8426 86.403 12.8426 86.4657C12.8426 86.5284 12.7942 86.5798 12.735 86.5798ZM7.30208 86.041C7.21332 86.041 7.14071 85.9925 7.14071 85.9332C7.14071 85.8739 7.21332 85.8254 7.30208 85.8254C7.39084 85.8254 7.46346 85.8739 7.46346 85.9332C7.46346 85.9925 7.39084 86.041 7.30208 86.041ZM7.09326 3.92117C7.06712 3.92117 7.01591 3.87267 6.97933 3.8134C6.94275 3.75413 6.96416 3.70563 7.02677 3.70563C7.08939 3.70563 7.14071 3.75413 7.14071 3.8134C7.14071 3.87267 7.1194 3.92117 7.09326 3.92117ZM6.97933 86.6876C6.89057 86.6876 6.81796 86.6391 6.81796 86.5798C6.81796 86.5205 6.73727 86.472 6.63861 86.472C6.54007 86.472 6.4894 86.442 6.52608 86.4052C6.62291 86.3082 7.14071 86.4571 7.14071 86.5819C7.14071 86.6401 7.06809 86.6876 6.97933 86.6876ZM6.49779 82.8121C6.36417 82.5955 6.47541 82.4583 6.65325 82.6204C6.74738 82.7061 6.76298 82.7924 6.69692 82.8609C6.62926 82.9311 6.56083 82.9143 6.49779 82.8121ZM6.67024 83.7665C6.51436 83.8962 6.17246 83.822 6.17246 83.6585C6.17246 83.6056 6.24508 83.5623 6.33383 83.5623C6.42259 83.5623 6.49521 83.4836 6.49521 83.3875C6.49521 83.2443 6.52436 83.2368 6.65658 83.3467C6.85658 83.513 6.8597 83.609 6.67024 83.7665ZM6.57406 90.7962C6.46863 90.6897 6.481 90.6774 6.63431 90.7358C6.74039 90.7763 6.8001 90.8366 6.76696 90.8698C6.73393 90.903 6.64711 90.8699 6.57406 90.7962ZM6.41452 81.727C6.16073 81.7242 6.14556 81.708 6.3078 81.6133C6.41183 81.5526 6.54491 81.5328 6.60365 81.5691C6.78364 81.6805 6.72393 81.7303 6.41452 81.727ZM6.16611 85.1788C6.04432 85.1788 5.9745 85.1303 6.01108 85.0711C6.04766 85.0118 6.14728 84.9633 6.2326 84.9633C6.31791 84.9633 6.38762 85.0118 6.38762 85.0711C6.38762 85.1303 6.28789 85.1788 6.16611 85.1788ZM6.01108 87.6575C5.92233 87.6575 5.84971 87.5863 5.84971 87.4992C5.84971 87.4028 5.91275 87.3652 6.01108 87.4029C6.09984 87.4371 6.17246 87.5083 6.17246 87.5613C6.17246 87.6142 6.09984 87.6575 6.01108 87.6575ZM5.47058 1.97918C5.38043 1.90417 5.32879 1.82065 5.35579 1.79349C5.43045 1.71881 5.63454 1.87065 5.63454 2.00084C5.63454 2.0724 5.57279 2.06421 5.47058 1.97918ZM4.61885 2.95125C4.5927 2.95125 4.5415 2.90275 4.50492 2.84348C4.46834 2.78421 4.48975 2.73571 4.55236 2.73571C4.61497 2.73571 4.66629 2.78421 4.66629 2.84348C4.66629 2.90275 4.64499 2.95125 4.61885 2.95125Z" fill="#fff"/></symbol><symbol viewBox="0 0 173 172" fill="none" id="svg-berry"><path opacity=".6" d="M99.9758 1.44487C124.683 4.75302 142.416 24.9641 155.317 46.7112C168.284 68.5695 176.764 93.592 168.665 117.289C160.166 142.156 139.17 161.395 113.762 168.55C89.2939 175.441 63.9474 167.042 42.6909 152.687C21.5117 138.384 3.44571 118.166 1.93065 93.072C0.447666 68.5088 16.987 47.8251 35.3527 30.6626C53.7123 13.5058 75.51 -1.83096 99.9758 1.44487Z" stroke="#D51287" stroke-width="2"/></symbol><symbol viewBox="0 0 133 129" fill="none" id="svg-blue"><path opacity=".6" d="M104.416 12.1409C119.766 22.6245 128.309 39.8106 130.98 58.4469C133.823 78.285 132.716 99.7115 119.032 113.775C105.158 128.035 83.8373 129.629 63.8313 127.457C43.4792 125.247 23.0446 118.927 11.6577 102.093C-0.338789 84.3582 -2.44588 61.1374 5.36613 41.1309C12.8685 21.9173 30.5071 9.07497 50.2739 3.28601C68.7412 -2.12235 88.4752 1.25293 104.416 12.1409Z" stroke="#00DB2C" stroke-width="1.5"/></symbol><symbol viewBox="0 0 260 185" fill="none" id="svg-blue-bg"><path d="M258.628 44.1911C267.611 80.3555 218.855 100.772 192.659 127.128C169.719 150.208 152.023 182.521 119.486 184.181C84.0061 185.992 51.7627 163.961 30.5011 135.401C8.75287 106.187 -11.4829 64.9103 7.78646 34.1362C25.9799 5.08037 70.6748 24.948 104.195 17.7077C124.605 13.2992 140.718 -2.56103 161.324 0.972613C198.097 7.27878 249.626 7.95001 258.628 44.1911Z" fill="url(#afpaint0_linear_150_1270)"/><defs><linearGradient id="afpaint0_linear_150_1270" x1="218.308" y1="-11.224" x2="33.305" y2="139.065" gradientUnits="userSpaceOnUse"><stop stop-color="#0F0235"/><stop offset="1" stop-color="#150052"/></linearGradient></defs></symbol><symbol viewBox="0 0 56 56" fill="none" id="svg-creation"><path fill-rule="evenodd" clip-rule="evenodd" d="M12.6958 12.695C10.0636 15.3268 8.86663 19.8725 8.86663 28C8.86663 36.1141 10.1041 40.6647 12.7585 43.3004C15.4162 45.9393 19.9704 47.1333 28.001 47.1333C36.0317 47.1333 40.5853 45.9393 43.2424 43.3005C45.8964 40.6649 47.1333 36.1143 47.1333 28C47.1333 19.8724 45.9368 15.3267 43.3051 12.6949C40.6735 10.0631 36.1281 8.86663 28.001 8.86663C19.874 8.86663 15.328 10.0631 12.6958 12.695ZM10.0561 10.055C13.8413 6.27018 19.7958 5.1333 28.001 5.1333C36.2063 5.1333 42.1603 6.27016 45.9451 10.0551C49.7298 13.8399 50.8666 19.7942 50.8666 28C50.8666 36.219 49.6805 42.1684 45.8731 45.9495C42.069 49.7273 36.1232 50.8666 28.001 50.8666C19.8789 50.8666 13.9326 49.7273 10.128 45.9496C6.32002 42.1685 5.1333 36.2191 5.1333 28C5.1333 19.7941 6.27074 13.8398 10.0561 10.055Z" fill="#C2E978"/><path fill-rule="evenodd" clip-rule="evenodd" d="M36.3199 22.4801C37.0489 23.2091 37.0489 24.391 36.3199 25.1199L26.9866 34.4533C26.2576 35.1823 25.0757 35.1823 24.3467 34.4533L19.68 29.7866C18.9511 29.0576 18.9511 27.8757 19.68 27.1467C20.409 26.4178 21.5909 26.4178 22.3199 27.1467L25.6666 30.4935L33.68 22.4801C34.409 21.7511 35.5909 21.7511 36.3199 22.4801Z" fill="#C2E978"/></symbol><symbol viewBox="0 0 50 12" fill="none" id="svg-curved"><path d="M46.6163 5.37089C45.0222 6.7635 43.4871 8.0935 41.9581 9.42825C41.652 9.69302 41.4363 9.88021 41.1064 10.2749C40.8583 10.5654 40.3453 11.1928 40.709 11.3896C41.0267 11.5205 41.2694 11.5726 41.8455 11.1634C43.328 10.0993 44.6435 8.82457 45.9555 7.56686C47.1132 6.45547 47.9793 5.59049 48.9465 4.54728C49.3982 4.06005 49.3081 3.65221 48.7885 3.34271C48.3222 3.0651 47.8485 2.77186 47.3376 2.58813C45.4994 1.91552 43.6504 1.29391 41.799 0.65055C41.5695 0.569193 41.3956 0.491861 41.1082 0.434358C40.7593 0.368077 40.5093 0.300338 40.3748 0.620691C40.2438 0.924046 40.6161 1.19699 40.8311 1.29671C42.6093 2.16994 46.3082 3.90947 46.4835 4.04731C45.3449 4.45024 44.2992 4.84697 43.2306 5.18593C35.7774 7.51103 28.2291 9.28552 20.3768 9.24506C14.1611 9.21316 8.0659 8.44348 2.1065 6.73C1.75389 6.6311 1.38806 6.56143 1.03432 6.50127C0.556213 6.41269 0.290764 6.4517 0.22485 6.6972C0.162994 7.17386 0.471032 7.317 0.706639 7.45275C1.17303 7.73035 1.70563 7.91135 2.22132 8.08896C9.14496 10.3923 16.2984 11.0229 23.5767 10.7111C31.0469 10.3916 38.1592 8.41289 45.1363 5.82243C45.4993 5.67182 46.4305 5.38331 46.6163 5.37089Z" fill="#fff"/></symbol><symbol viewBox="0 0 56 56" fill="none" id="svg-design"><path fill-rule="evenodd" clip-rule="evenodd" d="M28 40.1333C29.0309 40.1333 29.8666 40.969 29.8666 42V51.3333C29.8666 52.3642 29.0309 53.2 28 53.2C26.969 53.2 26.1333 52.3642 26.1333 51.3333V42C26.1333 40.969 26.969 40.1333 28 40.1333Z" fill="#7E839A"/><path fill-rule="evenodd" clip-rule="evenodd" d="M20.3 51.3333C20.3 50.3024 21.1358 49.4667 22.1667 49.4667H33.8334C34.8643 49.4667 35.7001 50.3024 35.7001 51.3333 35.7001 52.3643 34.8643 53.2 33.8334 53.2H22.1667C21.1358 53.2 20.3 52.3643 20.3 51.3333zM12.5708 12.0799C10.0424 14.1866 8.86663 17.7974 8.86663 24.5 8.86663 31.1866 10.0807 34.8039 12.6332 36.916 15.3044 39.1262 19.9292 40.1333 28.001 40.1333 36.073 40.1333 40.697 39.1262 43.3677 36.9161 45.9197 34.8041 47.1333 31.1868 47.1333 24.5 47.1333 17.7972 45.958 14.1865 43.4301 12.0798 40.7853 9.87572 36.1689 8.86663 28.001 8.86663 19.8333 8.86663 15.2162 9.8757 12.5708 12.0799zM10.181 9.21171C13.9531 6.06867 19.8366 5.1333 28.001 5.1333 36.1655 5.1333 42.0485 6.06866 45.8201 9.21181 49.7086 12.4524 50.8666 17.5917 50.8666 24.5 50.8666 31.4243 49.6572 36.557 45.7479 39.7922 41.9573 42.9293 36.0819 43.8666 28.001 43.8666 19.9201 43.8666 14.0444 42.9293 10.2532 39.7923 6.34336 36.5571 5.1333 31.4245 5.1333 24.5 5.1333 17.5915 6.2919 12.4522 10.181 9.21171z" fill="#7E839A"/></symbol><symbol viewBox="0 0 57 56" fill="none" id="svg-diamond-icon"><path fill-rule="evenodd" clip-rule="evenodd" d="M21.2009 7.58322C21.3051 7.58327 21.4106 7.58331 21.5176 7.58331H35.1491C35.2561 7.58331 35.3616 7.58327 35.4657 7.58322C37.8618 7.58215 39.5236 7.5814 41.0434 8.16519C41.5027 8.34164 41.9464 8.55654 42.3697 8.80759C43.7699 9.63815 44.7995 10.9425 46.2842 12.8232C46.3487 12.9049 46.4141 12.9878 46.4804 13.0717L46.5374 13.1438C47.8895 14.855 48.9857 16.2423 49.7599 17.456C50.5635 18.7156 51.1154 19.9287 51.2595 21.3139C51.338 22.0686 51.318 22.8303 51.2 23.5798C50.9834 24.9556 50.3687 26.138 49.5002 27.3537C48.6633 28.5252 47.4959 29.8531 46.056 31.491L40.0716 38.2982C37.6993 40.9968 35.7956 43.1623 34.0819 44.6355C32.3086 46.1599 30.5106 47.148 28.3333 47.148C26.1561 47.148 24.358 46.1599 22.5848 44.6355C20.871 43.1623 18.9674 40.9968 16.595 38.2981L10.6107 31.491C9.17073 29.8531 8.00331 28.5252 7.16646 27.3537C6.29796 26.138 5.68321 24.9556 5.46666 23.5798C5.34867 22.8303 5.32868 22.0686 5.4072 21.3139C5.5513 19.9287 6.1032 18.7156 6.90674 17.456C7.68101 16.2423 8.7772 14.855 10.1293 13.1438L10.1862 13.0717C10.2526 12.9878 10.318 12.9049 10.3825 12.8232C11.8671 10.9425 12.8967 9.63815 14.297 8.80759C14.7203 8.55654 15.1639 8.34164 15.6233 8.16519C17.1431 7.5814 18.8048 7.58215 21.2009 7.58322ZM21.5176 11.0833C18.6791 11.0833 17.7162 11.1106 16.8783 11.4324C16.6027 11.5383 16.3365 11.6672 16.0825 11.8179C15.3106 12.2758 14.6922 13.0144 12.9325 15.2416C11.5099 17.042 10.5253 18.2914 9.85746 19.3384C9.20801 20.3564 8.95456 21.0401 8.88841 21.676C8.8413 22.1288 8.8533 22.5859 8.92409 23.0356C9.0235 23.6671 9.31245 24.3366 10.0144 25.3192C10.7363 26.3297 11.785 27.5258 13.3 29.2491L19.1331 35.8842C21.6172 38.7099 23.3609 40.6872 24.8664 41.9814C26.3341 43.2431 27.344 43.648 28.3333 43.648C29.3226 43.648 30.3325 43.2431 31.8003 41.9814C33.3057 40.6872 35.0495 38.7099 37.5336 35.8842L43.3666 29.2491C44.8817 27.5257 45.9304 26.3297 46.6523 25.3192C47.3542 24.3366 47.6432 23.6671 47.7426 23.0356C47.8134 22.5859 47.8254 22.1288 47.7782 21.676C47.7121 21.0401 47.4586 20.3564 46.8092 19.3384C46.1413 18.2914 45.1568 17.042 43.7342 15.2416C41.9744 13.0144 41.3561 12.2758 40.5841 11.8179C40.3302 11.6672 40.064 11.5383 39.7883 11.4324C38.9505 11.1106 37.9876 11.0833 35.1491 11.0833H21.5176Z" fill="#C2E978"/><path fill-rule="evenodd" clip-rule="evenodd" d="M5.58337 22.1666C5.58337 21.2001 6.36688 20.4166 7.33337 20.4166H49.3334C50.2999 20.4166 51.0834 21.2001 51.0834 22.1666C51.0834 23.1331 50.2999 23.9166 49.3334 23.9166H7.33337C6.36688 23.9166 5.58337 23.1331 5.58337 22.1666Z" fill="#C2E978"/><path fill-rule="evenodd" clip-rule="evenodd" d="M28.2229 8.01185C29.0383 8.53074 29.2787 9.61239 28.7598 10.4278L21.0466 22.5485L28.6754 44.6285C28.991 45.542 28.5063 46.5384 27.5928 46.8541C26.6793 47.1697 25.6829 46.685 25.3673 45.7715L17.4626 22.8931C17.2884 22.3887 17.3538 21.8323 17.6403 21.3821L25.807 8.54873C26.3259 7.73333 27.4075 7.49296 28.2229 8.01185Z" fill="#C2E978"/><path fill-rule="evenodd" clip-rule="evenodd" d="M28.4546 8.01185C27.6392 8.53074 27.3988 9.61239 27.9177 10.4278L35.6309 22.5485L28.0021 44.6285C27.6865 45.542 28.1712 46.5384 29.0847 46.8541C29.9982 47.1697 30.9946 46.685 31.3102 45.7715L39.2148 22.8931C39.3891 22.3887 39.3237 21.8323 39.0372 21.3821L30.8705 8.54873C30.3516 7.73333 29.27 7.49296 28.4546 8.01185Z" fill="#C2E978"/></symbol><symbol viewBox="0 0 46 44" fill="none" id="svg-dollar-icon"><path fill-rule="evenodd" clip-rule="evenodd" d="M0.25 11.5C0.25 5.37886 5.21218 0.416687 11.3333 0.416687H34.6667C40.7878 0.416687 45.75 5.37886 45.75 11.5V20.8334C45.75 26.9545 40.7878 31.9167 34.6667 31.9167H11.3333C5.21218 31.9167 0.25 26.9545 0.25 20.8334V11.5ZM11.3333 3.91669C7.14517 3.91669 3.75 7.31186 3.75 11.5V20.8334C3.75 25.0215 7.14517 28.4167 11.3333 28.4167H34.6667C38.8548 28.4167 42.25 25.0215 42.25 20.8334V11.5C42.25 7.31186 38.8548 3.91669 34.6667 3.91669H11.3333Z" fill="#C2E978"/><path fill-rule="evenodd" clip-rule="evenodd" d="M0.25 20.8334V26.6667C0.25 32.7879 5.21218 37.75 11.3333 37.75H34.6667C40.7878 37.75 45.75 32.7879 45.75 26.6667V20.8334C45.75 24.2552 44.1993 27.3148 41.7624 29.3479C40.6793 32.2128 37.9109 34.25 34.6667 34.25H11.3333C8.08912 34.25 5.32071 32.2128 4.23761 29.3479C1.80066 27.3148 0.25 24.2552 0.25 20.8334Z" fill="#C2E978"/><path fill-rule="evenodd" clip-rule="evenodd" d="M.25 26.6667V32.5C.25 38.6212 5.21218 43.5834 11.3333 43.5834H34.6667C40.7878 43.5834 45.75 38.6212 45.75 32.5V26.6667C45.75 30.0885 44.1993 33.1481 41.7624 35.1812 40.6793 38.0461 37.9109 40.0834 34.6667 40.0834H11.3333C8.08912 40.0834 5.32071 38.0461 4.23761 35.1812 1.80066 33.1481.25 30.0885.25 26.6667zM19.3586 9.62661C20.3376 8.75732 21.6683 8.34609 23.1651 8.37698 24.0307 8.39485 24.9821 8.51573 25.886 8.9346 26.827 9.37062 27.6088 10.0794 28.1886 11.0907 28.6693 11.9291 28.3793 12.9985 27.5408 13.4793 26.7023 13.96 25.6329 13.67 25.1522 12.8315 24.9172 12.4216 24.6698 12.2285 24.4145 12.1102 24.1222 11.9748 23.7103 11.889 23.0929 11.8762 22.2699 11.8593 21.8621 12.0843 21.6825 12.2438 21.5087 12.3981 21.4019 12.6167 21.4019 12.9211 21.4019 13.3547 21.5284 13.675 21.7316 13.8825 21.9194 14.0743 22.3984 14.4011 23.5875 14.4011 24.6583 14.4011 25.9429 14.5978 26.9952 15.3844 28.1413 16.2411 28.7132 17.5671 28.7132 19.1718 28.7132 20.6765 27.9226 21.9291 26.9069 22.7541 25.889 23.5809 24.5409 24.0773 23.129 24.0773 21.7919 24.0773 20.5908 23.7158 19.5859 22.9922 18.5952 22.2787 17.9015 21.2906 17.4301 20.1989 17.0469 19.3116 17.4556 18.2817 18.3429 17.8986 19.2302 17.5154 20.2602 17.9241 20.6433 18.8114 20.9271 19.4687 21.2696 19.8916 21.6312 20.152 21.9786 20.4022 22.4461 20.5773 23.129 20.5773 23.7371 20.5773 24.3061 20.3575 24.7003 20.0373 25.0968 19.7153 25.2132 19.3902 25.2132 19.1718 25.2132 18.4421 24.9934 18.2578 24.8997 18.1877 24.7122 18.0476 24.309 17.9011 23.5875 17.9011 21.7406 17.9011 20.2518 17.3739 19.2308 16.3312 18.2253 15.3043 17.9019 14.0095 17.9019 12.9211 17.9019 11.7036 18.3738 10.501 19.3586 9.62661z" fill="#C2E978"/><path fill-rule="evenodd" clip-rule="evenodd" d="M23 5.72131C23.6444 5.72131 24.1667 6.24365 24.1667 6.88798V9.81809C24.1667 10.4624 23.6444 10.9848 23 10.9848 22.3557 10.9848 21.8334 10.4624 21.8334 9.81809V6.88798C21.8334 6.24365 22.3557 5.72131 23 5.72131zM23.0555 21.3486C23.6998 21.3486 24.2221 21.8709 24.2221 22.5152V25.4454C24.2221 26.0897 23.6998 26.612 23.0555 26.612 22.4111 26.612 21.8888 26.0897 21.8888 25.4454V22.5152C21.8888 21.8709 22.4111 21.3486 23.0555 21.3486z" fill="#C2E978"/></symbol><symbol viewBox="0 0 56 56" fill="none" id="svg-drawing"><path d="M21.9298 51.3333H32.5509C33.6102 51.2856 34.5072 50.9898 34.5358 49.3484L33.4193 35.1202C38.6487 36.4943 42.4849 33.3643 43.7732 30.1866C44.6702 27.9059 44.4698 25.4247 43.277 23.3349C46.6647 20.2049 46.1589 16.1874 45.2619 14.2025C44.3648 12.1222 41.1776 8.08557 35.032 9.53607C33.7342 6.59691 30.5851 4.58339 27.2929 4.66927C24.1151 4.66927 21.2332 6.35834 19.7445 9.03985C15.6221 8.37186 11.9004 11.0247 10.6121 14.2025C9.52425 16.9794 10.1159 20.1571 12.1008 22.4379C9.68647 25.377 10.0205 28.7933 10.9079 30.7782C11.805 32.8585 14.9159 36.8951 21.2237 35.3587L20.0404 49.2434C19.964 50.4649 20.6511 51.1234 21.9298 51.3333ZM24.0197 47.4589L25.3461 32.7249C25.871 32.1142 26.3004 31.4271 26.5962 30.6828C26.5962 30.5874 26.5962 30.5874 26.5962 30.5874C27.0925 30.6828 27.6841 30.7878 28.1803 30.7878C28.4762 31.408 28.8579 31.9901 29.3159 32.515L30.4706 47.4685H24.0197V47.4589V47.4589ZM22.6265 11.7214C23.304 9.6983 24.7545 8.56271 27.0925 8.4482C29.5831 8.55317 31.2531 10.1277 31.6634 12.3226C31.9211 13.8303 33.3811 14.5842 34.6408 13.8112C38.7823 11.7404 41.0917 14.6033 41.5879 15.7007C42.0841 16.6931 42.5994 19.3556 39.603 21.1591C38.4293 21.8844 38.3243 23.1154 39.1068 24.2414C40.3951 25.4343 40.6909 27.2188 40.0992 28.7074C39.5076 30.3965 37.1696 32.2096 34.1446 31.1886C32.7513 30.6923 31.7589 29.6045 31.3676 28.2112C31.1672 27.2188 30.1748 26.5222 29.1823 26.7226C28.2853 26.923 27.1497 26.8371 26.1 26.2263C24.8881 25.5774 23.1895 26.4076 23.2181 27.8104C23.2181 28.3066 23.1227 28.7074 22.9223 29.0987C22.3306 30.7878 20.5366 31.8756 18.6567 31.8756C18.065 31.8756 15.6412 31.618 14.3911 29.1941C13.1314 26.379 15.1831 24.5277 15.9752 24.0315C17.3111 23.2013 17.5115 21.579 15.9752 20.7583C14.1907 19.6705 13.3986 17.4852 14.1907 15.5957C14.7823 13.9066 17.2253 12.1031 20.0499 13.1146C21.1473 13.4868 22.2161 13.0287 22.6265 11.7214Z" fill="#7E839A"/></symbol><symbol viewBox="0 0 47 38" fill="none" id="svg-greens-icon"><path d="M44.6764 18.9142H40.7907L42.9041 16.5448C43.596 15.7582 43.4917 14.4693 42.7051 13.7869C41.9185 13.095 40.6296 13.1993 39.9472 13.9859L38.4687 15.6445V11.8156C38.4687 10.7352 37.5779 9.84429 36.4974 9.84429C35.417 9.84429 34.5261 10.7352 34.5261 11.8156V20.0609L32.1568 22.7146V18.8194C32.1568 17.739 31.2659 16.8481 30.1855 16.8481C29.1051 16.8481 28.2142 17.739 28.2142 18.8194V27.1405L25.4847 30.2017C25.2572 28.7706 24.9634 25.2261 24.9634 24.8375C24.8687 23.16 24.6696 21.2835 25.1625 20.0041C25.3615 19.4165 26.5462 15.2748 27.1338 14.384C28.0057 13.1329 30.2044 12.5453 32.261 10.1476C33.531 8.65962 34.1376 7.08637 34.0333 5.6079C33.9385 4.52747 33.0477 3.73137 31.9578 3.83562C30.8679 3.93988 30.0812 4.82127 30.1855 5.91117C30.1855 6.30922 30.0338 6.92525 28.9345 7.88247C27.7024 7.27592 28.726 4.77389 26.1386 1.0777C25.5226 0.205785 24.3664 -0.106969 23.4755 0.490106C22.5846 1.08718 22.2908 2.26238 22.8879 3.24803C25.134 6.10072 23.6177 8.07202 25.9112 10.2139C25.2383 10.6688 24.518 11.2185 23.9209 11.9862C23.1912 11.2375 22.7931 9.66422 22.5941 8.57432C22.3003 7.19062 22.0065 5.71215 21.2104 4.4327C20.6228 3.44705 19.4381 3.15325 18.5473 3.74085C17.5616 4.32845 17.2678 5.51312 17.8554 6.404C18.6799 7.72135 18.8695 12.8581 21.7032 15.5781C21.9022 16.0709 21.9022 16.6585 21.7032 17.1514C21.599 17.4167 20.1679 21.2645 20.9166 25.0365C21.0114 25.4346 21.3052 29.5194 21.5516 31.1589L18.0639 27.2353V19.0184C18.0639 17.938 17.173 17.0471 16.0926 17.0471C15.0122 17.0471 14.1213 17.938 14.1213 19.0184V22.7999L11.951 20.3642V12.1094C11.951 11.029 11.0601 10.1381 9.97969 10.1381C8.89927 10.1381 8.00839 11.029 8.00839 12.1094V15.9288L6.6247 14.3745C5.83807 13.4836 4.6534 13.4836 3.86677 14.1755C2.9759 14.9621 2.9759 16.1468 3.66775 16.9334L5.61061 19.1037H1.9713C0.890875 19.1037 0 19.9946 0 21.075C0 22.1554 0.890875 23.0463 1.9713 23.0463H9.11725L11.7614 26.0032H8.08421C7.00379 26.0032 6.11292 26.8941 6.11292 27.9745C6.11292 29.055 7.00379 29.9458 8.08421 29.9458H15.306L17.3057 32.1825C16.1589 32.7891 15.1543 33.8031 14.5952 35.0731C14.1024 36.0588 14.5004 37.1487 15.4861 37.6415C15.6851 37.7362 17.2488 38.267 17.9502 36.8549C18.244 36.2673 18.7368 35.7744 19.3339 35.5754C22.632 34.7224 27.7119 35.2816 32.1568 36.6558C33.2372 36.9496 34.3271 36.362 34.6209 35.3764C34.9147 34.296 34.3271 33.2061 33.3415 32.9123C31.8819 32.4479 30.5551 32.0877 29.2757 31.8224L31.029 29.8605H38.2792C39.3596 29.8605 40.2505 28.9697 40.3547 27.8892C40.3547 26.8088 39.4639 25.9179 38.3834 25.9179H34.5546L37.2841 22.8567H44.5911C45.6715 22.8567 46.6667 21.9659 46.6667 20.8854C46.6477 19.805 45.7568 18.9142 44.6764 18.9142Z" fill="#C2E978"/></symbol><symbol viewBox="0 0 19 21" fill="none" id="svg-highlight"><path fill-rule="evenodd" clip-rule="evenodd" d="M12.6429 19.5971C14.4571 19.0835 16.3565 18.8244 18.1991 18.5871 18.596 18.5373 18.9644 18.815 18.9928 19.2062 19.0495 19.5977 18.7658 19.9557 18.3973 20.0055 16.6114 20.234 14.769 20.4785 13.0398 20.9729 12.6713 21.0802 12.2743 20.8594 12.1609 20.4796 12.0475 20.1002 12.2743 19.7047 12.6429 19.5971zM7.14367 12.3153C10.0634 9.30944 13.3517 6.6905 16.2148 3.60399 16.4699 3.31573 16.9235 3.30029 17.207 3.56939 17.4904 3.83878 17.5187 4.29176 17.2352 4.58002 14.3721 7.67539 11.0838 10.3029 8.16406 13.3176 7.88059 13.599 7.42715 13.603 7.14367 13.3262 6.88855 13.0497 6.8602 12.5967 7.14367 12.3153zM1.67301.753757C1.58797 2.47417 1.50309 4.19458 1.41805 5.91528 1.41805 6.30936 1.07772 6.61363.680857 6.59447.283995 6.57502.000688553 6.23958.000688553 5.84522.0857303 4.12195.170606 2.39896.255648.675971.283995.2819.624218-.0203736 1.02108.00107435 1.38959.0225223 1.70136.359972 1.67301.753757z" fill="#C2E978"/></symbol><symbol viewBox="0 0 266 5" fill="none" id="svg-line"><path fill-rule="evenodd" clip-rule="evenodd" d="M264.289 2.96901C211.895 0.352555 158.614 1.79975 106.088 1.32865C71.3548 1.01346 36.6191 0.254265 1.91105 7.60211e-05C0.870449 -0.00670236 0.0146223 0.440658 0.000169567 1.00326C-0.0136548 1.56587 0.819569 2.02681 1.85954 2.03359C36.5638 2.28778 71.2957 3.04697 106.025 3.36217C158.457 3.83327 211.637 2.38267 263.937 4.99574C264.974 5.04658 265.892 4.6365 265.992 4.07728C266.086 3.51807 265.32 3.02324 264.289 2.96901Z" fill="#fff"/></symbol><symbol viewBox="0 0 24 24" fill="none" id="svg-notice-icon"><path opacity=".1" fill-rule="evenodd" clip-rule="evenodd" d="M2.58337 2.58279C4.5698 0.596612 7.69461 0 12.0006 0C16.3065 0 19.4311 0.596604 21.4173 2.58285C23.4034 4.56908 24 7.69379 24 12C24 16.3132 23.3775 19.4353 21.3795 21.4196C19.3832 23.4021 16.2629 24 12.0006 24C7.73821 24 4.61772 23.4021 2.62111 21.4196C0.622768 19.4354 0 16.3133 0 12C0 7.69371 0.596908 4.569 2.58337 2.58279Z" fill="#C2E978"/></symbol><symbol viewBox="0 0 24 24" fill="none" id="svg-num-bg"><path opacity=".1" fill-rule="evenodd" clip-rule="evenodd" d="M2.58337 2.58279C4.5698 0.596612 7.69461 0 12.0006 0C16.3065 0 19.4311 0.596604 21.4173 2.58285C23.4034 4.56908 24 7.69379 24 12C24 16.3132 23.3775 19.4353 21.3795 21.4196C19.3832 23.4021 16.2629 24 12.0006 24C7.73821 24 4.61772 23.4021 2.62111 21.4196C0.622768 19.4354 0 16.3133 0 12C0 7.69371 0.596908 4.569 2.58337 2.58279Z" fill="#C2E978"/></symbol><symbol viewBox="0 0 152 150" fill="none" id="svg-orange"><path opacity=".6" d="M146.18 50.3031C157.488 81.066 148.318 116.003 122.347 135.937C97.2272 155.218 62.6136 152.468 36.2248 134.68C10.0181 117.015 -4.95702 86.0595 3.31122 55.696C11.8742 24.25 40.0889 2.03517 72.663 0.803837C105.297 -0.429778 134.91 19.6436 146.18 50.3031Z" stroke="#FFA929" stroke-width="1.5"/></symbol><symbol viewBox="0 0 47 48" fill="none" id="svg-picture-icon"><path d="M27.8837 16.7628C29.567 16.7628 31.0506 19.1403 31.45 19.9297 31.9636 21.2896 34.5409 21.3086 35.0164 20.0248 35.4158 19.1308 36.8994 16.8579 38.5827 16.8579 39.6764 16.8579 40.5608 15.9639 40.5608 14.8797 40.5608 13.7861 39.6669 12.9016 38.5827 12.9016 36.2242 12.9016 34.4363 14.2996 33.257 15.6691 32.0777 14.2616 30.2803 12.797 27.8837 12.797 26.79 12.797 25.9056 13.691 25.9056 14.7751 25.8961 15.8783 26.79 16.7628 27.8837 16.7628zM8.66423 12.0076C10.3475 12.0076 11.8311 14.3852 12.2306 15.1745 12.9153 16.6201 15.1692 16.5535 15.7969 15.2696 16.1963 14.3757 17.6799 12.1027 19.3632 12.1027 20.4569 12.1027 21.3413 11.2088 21.3413 10.1246 21.3413 9.03093 20.4474 8.14648 19.3632 8.14648 17.0047 8.14648 15.2168 9.54448 14.0375 10.9139 12.8582 9.50644 11.0608 8.04187 8.66423 8.04187 7.57056 8.04187 6.68611 8.93583 6.68611 10.02 6.6766 11.1232 7.57056 12.0076 8.66423 12.0076z" fill="#C2E978"/><path d="M45.0218 0.718994H2.32101C1.22733 0.718994 0.333374 1.60344 0.333374 2.69712V45.3028C0.333374 46.3965 1.22733 47.281 2.3115 47.281H44.9172C46.0109 47.281 46.8953 46.387 47 45.3979V2.69712C47.0095 1.60344 46.1155 0.718994 45.0218 0.718994ZM43.0437 4.58014V38.037L39.4774 30.6381C37.3947 26.3775 34.5226 24 31.3462 24C28.3695 24 25.6971 25.9781 23.719 29.649C21.7408 25.9876 19.059 24 16.0918 24C12.9249 24 10.0433 26.3775 7.97007 30.6381L4.20403 38.446V4.58014H43.0437ZM41.1607 43.4198H6.04901L11.2416 32.3214C12.6301 29.5444 14.3134 27.9657 15.9016 27.9657C17.5849 27.9657 19.2682 29.5539 20.5616 32.3214C21.0561 33.5102 22.2449 34.2044 23.5383 34.2044C24.8222 34.2044 25.9158 33.5102 26.515 32.3214C27.9035 29.5444 29.5868 27.9657 31.175 27.9657C32.8583 27.9657 34.5416 29.5539 35.835 32.3214L41.1607 43.4198Z" fill="#C2E978"/></symbol><symbol viewBox="0 0 6 7" fill="none" id="svg-q2"><path d="M1.44 6.88622C1.68 7.07034 1.84 7.03352 2 6.75733L2.944 5.08181H3.056L4 6.75733C4.16 7.03352 4.32 7.07034 4.56 6.88622L5.392 6.24179C5.616 6.05766 5.648 5.91037 5.488 5.65259L4.72 4.38214V4.23484H5.6C5.888 4.23484 6 4.10596 6 3.77453V2.66979C6 2.33837 5.888 2.20948 5.6 2.20948H3.92V0.46031C3.92 0.128887 3.808 0 3.52 0H2.48C2.192 0 2.08 0.128887 2.08 0.46031V2.20948H0.4C0.112 2.20948 0 2.33837 0 2.66979V3.77453C0 4.10596 0.112 4.23484 0.4 4.23484H1.28V4.38214L0.512 5.65259C0.352 5.91037 0.384 6.05766 0.608 6.24179L1.44 6.88622Z" fill="#C2E978"/></symbol><symbol viewBox="0 0 328 206" fill="none" id="svg-sign-bg-green"><path opacity=".1" d="M322.96 59.7368C343.421 101.757 295.605 146.896 259.523 175.854C234.164 196.206 199.489 181.126 167.154 184.78C130.132 188.965 93.4294 218.317 61.7782 198.203C22.7746 173.417 -6.96558 125.301 2.45493 80.1175C11.6382 36.0728 59.3186 11.8979 102.802 1.44148C134.742 -6.23901 158.961 26.3725 190.847 34.8155C236.459 46.8933 302.178 17.0584 322.96 59.7368Z" fill="#4DFFAA"/></symbol><symbol viewBox="0 0 18 19" fill="none" id="svg-star"><path fill-rule="evenodd" clip-rule="evenodd" d="M7.52604 3.74422C7.47514 3.44226 7.4368 3.14372 7.41204 2.84515C7.37472 2.39729 7.39779 1.94601 7.38456 1.49815C7.37879 1.30815 7.35605 0.8128 7.36522 0.74155C7.44834 0.120657 7.94946 0.0256456 8.09603 0.00868133C8.16694 -0.00149724 8.89505 -0.0828894 9.05214 0.724611C9.24485 1.71193 9.30661 2.70603 9.23841 3.67978C9.39754 4.50763 9.66965 5.33208 10.029 6.07851C11.4587 9.04726 14.1832 9.33566 17.1349 9.30851C17.5889 9.30173 17.9659 9.65797 17.9896 10.1092C18.0134 10.5639 17.6754 10.9574 17.2235 10.9981C15.5736 11.1576 12.6462 12.4808 11.6341 13.8583C11.4224 14.1467 11.2992 14.8423 11.1364 15.5243C10.9091 16.4709 10.6386 17.4073 10.3357 17.8008C10.2902 17.8619 9.73749 18.4862 9.5726 18.5778C9.17632 18.795 8.85909 18.6694 8.67893 18.554C8.49877 18.4387 8.29486 18.2114 8.21343 17.8348C8.12827 17.4412 8.2002 16.6337 8.18696 16.4606C8.13879 15.833 8.01326 14.6014 7.7571 13.5428C7.61901 12.9728 7.47175 12.4469 7.22815 12.1856C6.32633 11.2187 4.88436 11.3612 3.67006 11.5207C3.53061 11.5376 3.39117 11.558 3.25206 11.575C2.75772 11.7209 2.23283 11.8294 1.6781 11.8939C0.840404 11.9923 0.702663 11.2221 0.695199 11.1712C0.679592 11.0592 0.621568 10.4825 1.25298 10.2517C1.32185 10.228 1.83011 10.116 2.02588 10.0719C2.29866 10.0108 2.5745 9.96335 2.85135 9.91924C5.71119 9.03032 7.26445 6.53315 7.52604 3.74422ZM8.50759 6.82836C9.5872 9.06086 11.2256 10.1398 13.1677 10.6283H13.1673C11.9547 11.2628 10.8517 12.0568 10.2671 12.8541C10.0452 13.156 9.84166 13.7633 9.65811 14.4453C9.5587 13.8108 9.42435 13.1356 9.2469 12.5589C9.04503 11.9006 8.77324 11.3544 8.46992 11.0287C7.88432 10.401 7.14942 10.0516 6.35922 9.87853C7.30515 9.0405 8.02241 7.9955 8.50759 6.82836Z" fill="#C2E978"/></symbol><symbol viewBox="0 0 47 48" fill="none" id="svg-tree-2-icon"><path d="M46.9408 20.8524C46.6257 18.1594 45.3269 16.1922 42.7581 15.1799C43.8372 12.105 43.3215 9.27829 41.106 6.70945C38.3557 4.15972 35.3572 3.74909 32.1103 5.32477C30.9166 2.93737 28.6247 1.2471 26.0368 0.75052C22.4748 0.330339 19.8869 1.50494 18.0724 3.93053C16.6782 3.03287 14.8829 2.53629 12.9921 2.44079C11.3973 2.3453 10.089 2.62224 9.0099 3.33846C5.21871 5.84999 6.6225 10.2046 6.82304 10.9017C5.4288 10.9972 3.63348 11.1023 2.24879 12.296C0.950052 13.3942 -2.2968 19.3531 4.93223 24.0419C4.73168 26.1333 5.4288 28.2247 6.82304 29.9149C8.30323 31.8821 10.6238 33.1809 14.3863 33.2955C15.4845 33.2 16.2771 32.3023 16.1816 31.2041C16.0861 30.1059 15.1885 29.3133 14.0903 29.4088C10.2609 29.4852 7.95944 26.7254 8.8189 23.4403C9.19134 22.323 8.58971 20.7378 7.02358 20.7569C5.00862 20.776 3.14646 17.0803 4.43565 15.4855C5.40016 14.8743 8.05494 15.2181 10.0126 14.5879C10.5092 14.3873 11.7411 13.5279 11.1108 11.9044C9.89801 9.63163 9.55422 7.81721 10.8148 6.82405C13.5077 6.05053 15.4272 7.02459 17.0888 8.61937C18.5308 10.1664 20.4121 9.48838 20.6699 7.62621C20.7941 6.7381 21.367 6.03143 21.7681 5.7354C24.7667 3.4244 28.8062 5.659 29.0354 9.42153C28.9399 11.045 31.7283 12.3055 32.817 10.0232C34.0775 8.0464 36.293 7.94135 38.1648 9.54568C39.9696 11.5988 39.6354 13.8334 37.8878 16.1922C36.6082 18.1403 38.795 19.9834 40.3803 19.0762C40.7813 18.7801 41.574 18.8756 42.0705 19.2767C44.4006 21.8646 42.4048 26.3625 37.8878 25.3502C36.8947 24.9491 35.7965 25.5508 35.3954 26.5439C34.9943 27.5371 35.5959 28.6353 36.5891 29.0364C41.8031 30.4688 47.1032 27.5084 46.9408 20.8524Z" fill="#C2E978"/><path d="M33.7049 16.8703C32.9123 16.1731 31.6135 16.3737 31.0215 17.2713L25.7501 24.529V16.7748C25.7501 15.6766 24.8524 14.7885 23.7638 14.7885C22.6751 14.7885 21.7775 15.6861 21.7775 16.7748V19.6778L17.9767 15.476C17.1841 14.6834 15.9904 14.6834 15.1883 15.3805C14.3957 16.1731 14.3957 17.3668 15.0928 18.169L21.7584 25.5795V45.3471C21.7584 46.4453 22.656 47.3334 23.7447 47.3334C24.8333 47.3334 25.731 46.4357 25.731 45.3471V31.1182L34.0964 19.5728C34.7936 18.7611 34.6026 17.4623 33.7049 16.8703Z" fill="#C2E978"/></symbol><symbol viewBox="0 0 56 56" fill="none" id="svg-tree-icon"><path d="M48.5945 20.5848C48.5945 11.8336 39.3375 4.66663 28.0001 4.66663C16.6626 4.66663 7.40564 11.8336 7.40564 20.5848C7.40564 28.8207 15.5938 35.6537 26.015 36.4267V49.3387C26.015 50.4362 26.9121 51.3333 28.0096 51.3333C29.1071 51.3333 30.0041 50.4362 30.0041 49.3387V36.4362C40.4063 35.6537 48.5945 28.8207 48.5945 20.5848ZM29.9946 32.5426V29.4792L37.9537 23.5814C38.8508 22.9802 38.9462 21.7873 38.3545 20.8998C37.7533 20.0027 36.5604 19.9073 35.6729 20.4989L30.0041 24.7075V20.4989C30.0041 19.4015 29.1071 18.5044 28.0096 18.5044C26.9121 18.5044 26.015 19.4015 26.015 20.4989V26.6925L20.3368 22.0831C19.4397 21.3865 18.2468 21.5869 17.5502 22.379C16.8535 23.276 17.0539 24.4689 17.846 25.1656L26.0055 31.7791V32.533C17.6933 31.8173 11.2802 26.6639 11.2802 20.4798C11.2898 13.8186 18.7431 8.44577 28.0001 8.44577C37.257 8.44577 44.7103 13.9141 44.7103 20.5848C44.7103 26.7689 38.2973 31.8364 29.9946 32.5426Z" fill="#C2E978"/></symbol><symbol viewBox="0 0 24 24" fill="none" id="svg-twitter"><path fill-rule="evenodd" clip-rule="evenodd" d="M14.849 5.65811C14.3922 5.65792 13.941 5.75916 13.528 5.95453C13.115 6.14989 12.7506 6.43451 12.461 6.78783C12.1714 7.14115 11.9639 7.55436 11.8534 7.99764C11.7429 8.44091 11.7321 8.9032 11.822 9.35111C11.8529 9.50631 11.8466 9.66664 11.8035 9.81891C11.7604 9.97118 11.6818 10.1111 11.5741 10.227C11.4665 10.343 11.3328 10.4318 11.1841 10.486C11.0355 10.5403 10.8761 10.5585 10.719 10.5391C8.56873 10.275 6.54172 9.39107 4.885 7.99511C4.916 8.59711 5.125 9.23711 5.578 9.90711L6.257 10.9111L5.142 11.3861L4.927 11.4781C5.087 11.6611 5.279 11.8481 5.494 12.0331C5.78141 12.2791 6.08547 12.505 6.404 12.7091L6.415 12.7161H6.416L7.964 13.6551L6.344 14.4651C6.264 14.5051 6.184 14.5411 6.104 14.5731C6.45234 14.8626 6.83609 15.1065 7.246 15.2991L8.636 15.9561L7.472 16.9601C6.837 17.5081 6.198 17.9171 5.369 18.1331C6.64044 18.8104 8.05944 19.1631 9.5 19.1601C14.306 19.1601 18.176 15.3251 18.176 10.6261V10.1061L18.601 9.80711C19.265 9.34111 19.734 8.71111 20.07 7.99011H17.91L17.638 7.42011C17.3875 6.89278 16.9926 6.44731 16.4991 6.13542C16.0056 5.82354 15.4338 5.65803 14.85 5.65811H14.849ZM3.569 12.9581C3.47463 13.0662 3.40463 13.1933 3.36373 13.3308C3.32284 13.4683 3.31202 13.613 3.332 13.7551C3.445 14.5561 3.924 15.2461 4.454 15.7731C4.598 15.9161 4.752 16.0531 4.914 16.1841L4.839 16.2041C4.358 16.3241 3.709 16.3491 2.628 16.2441C2.42386 16.2241 2.2185 16.2673 2.03975 16.3679C1.86101 16.4686 1.71754 16.6217 1.62879 16.8067C1.54004 16.9916 1.5103 17.1993 1.54361 17.4017C1.57692 17.6041 1.67166 17.7914 1.815 17.9381C2.81577 18.961 4.01129 19.7731 5.33102 20.3265C6.65075 20.8799 8.06795 21.1633 9.499 21.1601C15.212 21.1601 19.898 16.7241 20.163 11.1261C21.453 10.0431 22.098 8.57611 22.446 7.24311C22.4847 7.09516 22.4889 6.94031 22.4584 6.79047C22.4279 6.64062 22.3634 6.49977 22.2699 6.37876C22.1764 6.25774 22.0564 6.15978 21.9191 6.0924C21.7818 6.02502 21.6309 5.99003 21.478 5.99011H19.125C18.5494 5.09644 17.7083 4.40555 16.7199 4.01455C15.7314 3.62354 14.6453 3.55206 13.6141 3.81016C12.583 4.06825 11.6586 4.64295 10.9709 5.45349C10.2832 6.26403 9.8667 7.26968 9.78 8.32911C7.93666 7.84926 6.28733 6.80992 5.059 5.35411C4.95022 5.2255 4.81071 5.12644 4.65342 5.06614C4.49613 5.00585 4.32615 4.98626 4.15927 5.0092C3.99239 5.03215 3.83401 5.09687 3.69882 5.19738C3.56364 5.29788 3.45604 5.43091 3.386 5.58411C2.78 6.90611 2.664 8.43011 3.34 9.98011L3.106 10.0801C2.88207 10.1755 2.70064 10.3493 2.5957 10.569C2.49077 10.7886 2.46954 11.039 2.536 11.2731C2.722 11.9251 3.14 12.5011 3.568 12.9581H3.569Z" fill="#E5E5E5"/></symbol><symbol viewBox="0 0 56 56" fill="none" id="svg-website"><path d="M43.7358 29.626L30.8013 6.26666C30.2544 5.27937 29.2147 4.66663 28.0865 4.66663C26.9642 4.66663 25.9292 5.2726 25.3802 6.25135L12.2727 29.6082C11.671 30.6806 11.7593 32.0068 12.4973 32.9898L25.3382 50.0932C25.9246 50.874 26.8439 51.3333 27.8198 51.3333H28.3521C29.3354 51.3333 30.2604 50.8672 30.8454 50.0772L33.2027 46.9583C33.8076 46.1415 33.6282 44.9883 32.8036 44.3941C31.9943 43.8113 30.8668 43.9868 30.2733 44.7879L28.085 47.6793L18.822 35.3418L27.4662 38.5501C27.671 38.6263 27.8857 38.664 28.1007 38.664C28.3154 38.664 28.5308 38.6259 28.7355 38.5497L36.9995 35.4793L35.1043 37.9434C34.482 38.7833 34.692 39.9735 35.5643 40.5496C36.3725 41.0833 37.457 40.8918 38.0338 40.1135L43.5143 32.9763C44.2385 31.9993 44.325 30.6898 43.7358 29.626ZM26.2692 34.2171L18.6379 31.3848L26.2692 28.5525V34.2171ZM29.9151 28.5475L37.551 31.3848L29.9151 34.2221V28.5475ZM38.6056 27.8874L29.9151 24.6582V12.1929L38.6056 27.8874ZM26.2692 12.1164V24.6635L17.3758 27.9644L26.2692 12.1164Z" fill="#7E839A"/></symbol><symbol viewBox="0 0 105 102" fill="none" id="svg-white"><path opacity=".6" d="M82.3008 10.2375C94.3697 18.4807 101.083 31.9905 103.181 46.6304C105.413 62.2011 104.549 79.0501 93.7823 90.1161C82.866 101.336 66.0995 102.582 50.3977 100.877C34.4225 99.1427 18.3548 94.1795 9.39776 80.938C-0.032039 66.9975 -1.68726 48.7474 4.45217 33.0244C10.3514 17.9166 24.2175 7.8254 39.7451 3.27797C54.2611 -0.973219 69.772 1.68019 82.3008 10.2375Z" stroke="#fff"/></symbol><symbol viewBox="0 0 24 24" fill="none" id="svg-youtube"><path fill-rule="evenodd" clip-rule="evenodd" d="M7.84499 4.77499C10.437 4.40799 13.563 4.40799 16.155 4.77499C18.51 5.10899 20.335 6.76099 20.683 8.54099C21.106 10.696 21.106 13.304 20.683 15.459C20.334 17.239 18.51 18.891 16.155 19.225C13.563 19.592 10.436 19.592 7.84499 19.225C5.48999 18.891 3.66599 17.239 3.31699 15.459C2.89399 13.304 2.89399 10.696 3.31699 8.54099C3.66599 6.76099 5.48999 5.10899 7.84499 4.77499ZM16.435 2.79499C13.658 2.40199 10.342 2.40199 7.56499 2.79499C4.54999 3.22199 1.89999 5.37299 1.35499 8.15699C0.881994 10.566 0.881994 13.434 1.35499 15.843C1.89999 18.627 4.54999 20.778 7.56499 21.205C10.342 21.598 13.658 21.598 16.435 21.205C19.45 20.778 22.1 18.627 22.645 15.843C23.118 13.434 23.118 10.566 22.645 8.15699C22.1 5.37299 19.45 3.22199 16.435 2.79499ZM10.555 7.16799C10.4044 7.06752 10.2293 7.00981 10.0485 7.00102C9.86768 6.99224 9.68786 7.03271 9.52823 7.11812C9.3686 7.20353 9.23515 7.33067 9.14212 7.48599C9.04909 7.6413 8.99997 7.81895 8.99999 7.99999V16C8.99997 16.181 9.04909 16.3587 9.14212 16.514C9.23515 16.6693 9.3686 16.7965 9.52823 16.8819C9.68786 16.9673 9.86768 17.0077 10.0485 16.999C10.2293 16.9902 10.4044 16.9325 10.555 16.832L16.555 12.832C16.692 12.7407 16.8042 12.617 16.8819 12.4718C16.9596 12.3267 17.0002 12.1646 17.0002 12C17.0002 11.8354 16.9596 11.6733 16.8819 11.5282C16.8042 11.383 16.692 11.2593 16.555 11.168L10.555 7.16799ZM14.197 12L11 14.132V9.86899L14.197 12Z" fill="#E5E5E5"/></symbol></svg>