<svg width="18" height="19" viewBox="0 0 18 19" fill="none" xmlns="http://www.w3.org/2000/svg">
<path fill-rule="evenodd" clip-rule="evenodd" d="M7.52604 3.74422C7.47514 3.44226 7.4368 3.14372 7.41204 2.84515C7.37472 2.39729 7.39779 1.94601 7.38456 1.49815C7.37879 1.30815 7.35605 0.8128 7.36522 0.74155C7.44834 0.120657 7.94946 0.0256456 8.09603 0.00868133C8.16694 -0.00149724 8.89505 -0.0828894 9.05214 0.724611C9.24485 1.71193 9.30661 2.70603 9.23841 3.67978C9.39754 4.50763 9.66965 5.33208 10.029 6.07851C11.4587 9.04726 14.1832 9.33566 17.1349 9.30851C17.5889 9.30173 17.9659 9.65797 17.9896 10.1092C18.0134 10.5639 17.6754 10.9574 17.2235 10.9981C15.5736 11.1576 12.6462 12.4808 11.6341 13.8583C11.4224 14.1467 11.2992 14.8423 11.1364 15.5243C10.9091 16.4709 10.6386 17.4073 10.3357 17.8008C10.2902 17.8619 9.73749 18.4862 9.5726 18.5778C9.17632 18.795 8.85909 18.6694 8.67893 18.554C8.49877 18.4387 8.29486 18.2114 8.21343 17.8348C8.12827 17.4412 8.2002 16.6337 8.18696 16.4606C8.13879 15.833 8.01326 14.6014 7.7571 13.5428C7.61901 12.9728 7.47175 12.4469 7.22815 12.1856C6.32633 11.2187 4.88436 11.3612 3.67006 11.5207C3.53061 11.5376 3.39117 11.558 3.25206 11.575C2.75772 11.7209 2.23283 11.8294 1.6781 11.8939C0.840404 11.9923 0.702663 11.2221 0.695199 11.1712C0.679592 11.0592 0.621568 10.4825 1.25298 10.2517C1.32185 10.228 1.83011 10.116 2.02588 10.0719C2.29866 10.0108 2.5745 9.96335 2.85135 9.91924C5.71119 9.03032 7.26445 6.53315 7.52604 3.74422ZM8.50759 6.82836C9.5872 9.06086 11.2256 10.1398 13.1677 10.6283H13.1673C11.9547 11.2628 10.8517 12.0568 10.2671 12.8541C10.0452 13.156 9.84166 13.7633 9.65811 14.4453C9.5587 13.8108 9.42435 13.1356 9.2469 12.5589C9.04503 11.9006 8.77324 11.3544 8.46992 11.0287C7.88432 10.401 7.14942 10.0516 6.35922 9.87853C7.30515 9.0405 8.02241 7.9955 8.50759 6.82836Z" fill="#C2E978"/>
</svg>
